<svg width="176" height="39" viewBox="0 0 176 39" fill="none" xmlns="http://www.w3.org/2000/svg">
<path d="M3.6326 11.3125C2.45393 11.3125 1.58993 11.0378 1.0406 10.4885C0.491266 9.93917 0.2166 9.07517 0.2166 7.8965V4.2405C0.2166 3.05117 0.491266 2.1845 1.0406 1.6405C1.58993 1.09117 2.4486 0.819166 3.6166 0.824499H5.5526C6.5446 0.824499 7.2886 1.02983 7.7846 1.4405C8.2806 1.84583 8.55793 2.49917 8.6166 3.4005C8.63793 3.56583 8.60593 3.69383 8.5206 3.7845C8.43527 3.87517 8.30727 3.9205 8.1366 3.9205C7.82727 3.9205 7.65127 3.7525 7.6086 3.4165C7.56593 2.8085 7.38727 2.3925 7.0726 2.1685C6.76327 1.9445 6.2566 1.8325 5.5526 1.8325H3.6166C3.01927 1.82717 2.54727 1.89917 2.2006 2.0485C1.85393 2.19783 1.60327 2.4485 1.4486 2.8005C1.29927 3.1525 1.2246 3.6325 1.2246 4.2405V7.8965C1.2246 8.49383 1.29927 8.9685 1.4486 9.3205C1.60327 9.6725 1.8566 9.92583 2.2086 10.0805C2.5606 10.2298 3.03527 10.3045 3.6326 10.3045H5.5526C6.2566 10.3045 6.76327 10.1925 7.0726 9.9685C7.38727 9.73917 7.56593 9.32317 7.6086 8.7205C7.65127 8.3845 7.82727 8.2165 8.1366 8.2165C8.30727 8.2165 8.43527 8.26183 8.5206 8.3525C8.60593 8.43783 8.63793 8.56583 8.6166 8.7365C8.55793 9.6325 8.2806 10.2858 7.7846 10.6965C7.2886 11.1072 6.5446 11.3125 5.5526 11.3125H3.6326ZM11.6291 11.3125C11.2931 11.3125 11.1251 11.1445 11.1251 10.8085V0.664499C11.1251 0.328499 11.2931 0.1605 11.6291 0.1605C11.9651 0.1605 12.1331 0.328499 12.1331 0.664499V4.6645C12.6611 3.93383 13.5491 3.5685 14.7971 3.5685H15.2451C16.2691 3.5685 17.0184 3.8085 17.4931 4.2885C17.9731 4.76317 18.2131 5.5125 18.2131 6.5365V10.8085C18.2131 11.1445 18.0451 11.3125 17.7091 11.3125C17.3731 11.3125 17.2051 11.1445 17.2051 10.8085V6.5365C17.2051 5.79517 17.0611 5.28317 16.7731 5.0005C16.4904 4.71783 15.9811 4.5765 15.2451 4.5765H14.7971C14.0344 4.5765 13.4158 4.6885 12.9411 4.9125C12.4664 5.1365 12.1971 5.48583 12.1331 5.9605V10.8085C12.1331 11.1445 11.9651 11.3125 11.6291 11.3125ZM23.692 11.3125C22.6733 11.3125 21.924 11.0725 21.444 10.5925C20.964 10.1125 20.724 9.3685 20.724 8.3605V6.5365C20.724 5.50717 20.964 4.75517 21.444 4.2805C21.924 3.8005 22.6733 3.56317 23.692 3.5685H25.004C26.028 3.5685 26.7773 3.8085 27.252 4.2885C27.732 4.76317 27.972 5.5125 27.972 6.5365V8.3445C27.972 9.36317 27.732 10.1125 27.252 10.5925C26.7773 11.0725 26.028 11.3125 25.004 11.3125H23.692ZM21.732 8.3605C21.732 9.09117 21.8733 9.59783 22.156 9.8805C22.444 10.1632 22.956 10.3045 23.692 10.3045H25.004C25.7453 10.3045 26.2573 10.1632 26.54 9.8805C26.8226 9.5925 26.964 9.0805 26.964 8.3445V6.5365C26.964 5.79517 26.8226 5.28317 26.54 5.0005C26.2573 4.71783 25.7453 4.5765 25.004 4.5765H23.692C23.2013 4.57117 22.812 4.62983 22.524 4.7525C22.2413 4.86983 22.0386 5.0725 21.916 5.3605C21.7933 5.64317 21.732 6.03517 21.732 6.5365V8.3605ZM30.9445 2.1605C30.5285 2.1605 30.3205 1.94983 30.3205 1.5285V1.1285C30.3205 0.717833 30.5285 0.5125 30.9445 0.5125H31.3365C31.7365 0.5125 31.9365 0.717833 31.9365 1.1285V1.5285C31.9365 1.94983 31.7365 2.1605 31.3365 2.1605H30.9445ZM31.1365 11.3125C30.8005 11.3125 30.6325 11.1445 30.6325 10.8085V4.0725C30.6325 3.7365 30.8005 3.5685 31.1365 3.5685C31.4725 3.5685 31.6405 3.7365 31.6405 4.0725V10.8085C31.6405 11.1445 31.4725 11.3125 31.1365 11.3125ZM36.3019 11.3045C35.6405 11.3045 35.1285 11.1658 34.7659 10.8885C34.4032 10.6058 34.1792 10.1792 34.0939 9.6085C34.0725 9.43783 34.1072 9.30717 34.1979 9.2165C34.2939 9.1205 34.4245 9.0725 34.5899 9.0725C34.7552 9.0725 34.8752 9.11517 34.9499 9.2005C35.0299 9.2805 35.0859 9.40317 35.1179 9.5685C35.1712 9.8405 35.2885 10.0298 35.4699 10.1365C35.6512 10.2432 35.9285 10.2965 36.3019 10.2965H38.9259C39.4005 10.2965 39.7232 10.2112 39.8939 10.0405C40.0645 9.86983 40.1499 9.54717 40.1499 9.0725C40.1499 8.59783 40.0645 8.27517 39.8939 8.1045C39.7232 7.93383 39.4005 7.8485 38.9259 7.8485H36.3419C35.6219 7.8485 35.0832 7.6725 34.7259 7.3205C34.3739 6.9685 34.1979 6.4325 34.1979 5.7125C34.1979 4.9765 34.3739 4.43517 34.7259 4.0885C35.0779 3.7365 35.6165 3.5605 36.3419 3.5605H38.8459C40.0725 3.5605 40.7659 4.09117 40.9259 5.1525C40.9579 5.31783 40.9259 5.4485 40.8299 5.5445C40.7392 5.63517 40.6085 5.6805 40.4379 5.6805C40.2779 5.6805 40.1579 5.6405 40.0779 5.5605C40.0032 5.47517 39.9472 5.35517 39.9099 5.2005C39.8619 4.9605 39.7579 4.79517 39.5979 4.7045C39.4379 4.61383 39.1872 4.5685 38.8459 4.5685H36.3419C35.8992 4.5685 35.5979 4.64583 35.4379 4.8005C35.2832 4.95517 35.2059 5.25917 35.2059 5.7125C35.2059 6.1445 35.2859 6.4405 35.4459 6.6005C35.6059 6.7605 35.9045 6.8405 36.3419 6.8405H38.9259C39.6832 6.8405 40.2432 7.0245 40.6059 7.3925C40.9739 7.75517 41.1579 8.31517 41.1579 9.0725C41.1579 9.82983 40.9739 10.3925 40.6059 10.7605C40.2432 11.1232 39.6832 11.3045 38.9259 11.3045H36.3019ZM43.9206 2.1605C43.5046 2.1605 43.2966 1.94983 43.2966 1.5285V1.1285C43.2966 0.717833 43.5046 0.5125 43.9206 0.5125H44.3126C44.7126 0.5125 44.9126 0.717833 44.9126 1.1285V1.5285C44.9126 1.94983 44.7126 2.1605 44.3126 2.1605H43.9206ZM44.1126 11.3125C43.7766 11.3125 43.6086 11.1445 43.6086 10.8085V4.0725C43.6086 3.7365 43.7766 3.5685 44.1126 3.5685C44.4486 3.5685 44.6166 3.7365 44.6166 4.0725V10.8085C44.6166 11.1445 44.4486 11.3125 44.1126 11.3125ZM49.278 11.3045C48.6166 11.3045 48.1046 11.1658 47.742 10.8885C47.3793 10.6058 47.1553 10.1792 47.07 9.6085C47.0486 9.43783 47.0833 9.30717 47.174 9.2165C47.27 9.1205 47.4006 9.0725 47.566 9.0725C47.7313 9.0725 47.8513 9.11517 47.926 9.2005C48.006 9.2805 48.062 9.40317 48.094 9.5685C48.1473 9.8405 48.2646 10.0298 48.446 10.1365C48.6273 10.2432 48.9046 10.2965 49.278 10.2965H51.902C52.3766 10.2965 52.6993 10.2112 52.87 10.0405C53.0406 9.86983 53.126 9.54717 53.126 9.0725C53.126 8.59783 53.0406 8.27517 52.87 8.1045C52.6993 7.93383 52.3766 7.8485 51.902 7.8485H49.318C48.598 7.8485 48.0593 7.6725 47.702 7.3205C47.35 6.9685 47.174 6.4325 47.174 5.7125C47.174 4.9765 47.35 4.43517 47.702 4.0885C48.054 3.7365 48.5926 3.5605 49.318 3.5605H51.822C53.0486 3.5605 53.742 4.09117 53.902 5.1525C53.934 5.31783 53.902 5.4485 53.806 5.5445C53.7153 5.63517 53.5846 5.6805 53.414 5.6805C53.254 5.6805 53.134 5.6405 53.054 5.5605C52.9793 5.47517 52.9233 5.35517 52.886 5.2005C52.838 4.9605 52.734 4.79517 52.574 4.7045C52.414 4.61383 52.1633 4.5685 51.822 4.5685H49.318C48.8753 4.5685 48.574 4.64583 48.414 4.8005C48.2593 4.95517 48.182 5.25917 48.182 5.7125C48.182 6.1445 48.262 6.4405 48.422 6.6005C48.582 6.7605 48.8806 6.8405 49.318 6.8405H51.902C52.6593 6.8405 53.2193 7.0245 53.582 7.3925C53.95 7.75517 54.134 8.31517 54.134 9.0725C54.134 9.82983 53.95 10.3925 53.582 10.7605C53.2193 11.1232 52.6593 11.3045 51.902 11.3045H49.278ZM61.2721 14.5125C60.9361 14.5125 60.7681 14.3445 60.7681 14.0085V4.0725C60.7681 3.7365 60.9361 3.5685 61.2721 3.5685C61.6081 3.5685 61.7761 3.7365 61.7761 4.0725V4.6085C62.0321 4.26717 62.3788 4.0085 62.8161 3.8325C63.2588 3.6565 63.8001 3.5685 64.4401 3.5685H65.0481C66.0721 3.5685 66.8214 3.8085 67.2961 4.2885C67.7761 4.76317 68.0161 5.5125 68.0161 6.5365V8.3445C68.0161 9.36317 67.7761 10.1125 67.2961 10.5925C66.8214 11.0725 66.0721 11.3125 65.0481 11.3125H61.7761V14.0085C61.7761 14.3445 61.6081 14.5125 61.2721 14.5125ZM61.7761 10.3045H65.0481C65.7894 10.3045 66.3014 10.1632 66.5841 9.8805C66.8668 9.5925 67.0081 9.0805 67.0081 8.3445V6.5365C67.0081 5.79517 66.8668 5.28317 66.5841 5.0005C66.3014 4.71783 65.7894 4.5765 65.0481 4.5765H64.4401C63.6508 4.5765 63.0214 4.69117 62.5521 4.9205C62.0881 5.14983 61.8294 5.50717 61.7761 5.9925V10.3045ZM72.9982 11.3125C72.1502 11.3125 71.5236 11.1098 71.1182 10.7045C70.7129 10.2992 70.5102 9.6725 70.5102 8.8245C70.5102 7.97117 70.7129 7.34183 71.1182 6.9365C71.5236 6.53117 72.1502 6.3285 72.9982 6.3285H76.5582C76.5369 5.6725 76.3796 5.2165 76.0862 4.9605C75.7982 4.7045 75.3022 4.5765 74.5982 4.5765H73.6702C73.0409 4.5765 72.5769 4.63783 72.2782 4.7605C71.9849 4.87783 71.7956 5.08317 71.7102 5.3765C71.6569 5.5365 71.5902 5.65383 71.5102 5.7285C71.4356 5.79783 71.3209 5.8325 71.1662 5.8325C71.0009 5.8325 70.8702 5.78717 70.7742 5.6965C70.6836 5.6005 70.6516 5.4725 70.6782 5.3125C70.7796 4.7045 71.0756 4.26183 71.5662 3.9845C72.0569 3.70717 72.7582 3.5685 73.6702 3.5685H74.5982C75.6222 3.5685 76.3716 3.8085 76.8462 4.2885C77.3262 4.76317 77.5662 5.5125 77.5662 6.5365V10.8085C77.5662 11.1445 77.3982 11.3125 77.0622 11.3125C76.7262 11.3125 76.5582 11.1445 76.5582 10.8085V10.1525C76.0302 10.9258 75.1422 11.3125 73.8942 11.3125H72.9982ZM72.9982 10.3045H73.8942C74.3742 10.3045 74.8009 10.2538 75.1742 10.1525C75.5529 10.0512 75.8622 9.88317 76.1022 9.6485C76.3476 9.41383 76.4996 9.0965 76.5582 8.6965V7.3365H72.9982C72.4276 7.3365 72.0382 7.4405 71.8302 7.6485C71.6222 7.8565 71.5182 8.2485 71.5182 8.8245C71.5182 9.39517 71.6222 9.7845 71.8302 9.9925C72.0382 10.2005 72.4276 10.3045 72.9982 10.3045ZM80.842 11.3125C80.506 11.3125 80.338 11.1445 80.338 10.8085V4.0725C80.338 3.7365 80.506 3.5685 80.842 3.5685C81.178 3.5685 81.346 3.7365 81.346 4.0725V5.0965C81.6393 4.6005 82.042 4.22183 82.554 3.9605C83.066 3.69917 83.666 3.5685 84.354 3.5685C84.69 3.5685 84.858 3.7365 84.858 4.0725C84.858 4.4085 84.69 4.5765 84.354 4.5765C83.4153 4.5765 82.69 4.7765 82.178 5.1765C81.6713 5.5765 81.394 6.13383 81.346 6.8485V10.8085C81.346 11.1445 81.178 11.3125 80.842 11.3125ZM95.0669 3.5605C95.9789 3.5605 96.6295 3.7845 97.0189 4.2325C97.4135 4.6805 97.6109 5.4245 97.6109 6.4645V10.8165C97.6109 11.1525 97.4429 11.3205 97.1069 11.3205C96.7709 11.3205 96.6029 11.1525 96.6029 10.8165V6.4645C96.6029 5.7925 96.4829 5.30983 96.2429 5.0165C96.0082 4.71783 95.6162 4.5685 95.0669 4.5685H94.4029C93.7362 4.5685 93.2589 4.71783 92.9709 5.0165C92.6829 5.30983 92.5389 5.7925 92.5389 6.4645V10.8165C92.5389 11.1525 92.3709 11.3205 92.0349 11.3205C91.6989 11.3205 91.5309 11.1525 91.5309 10.8165V6.4645C91.5309 5.7925 91.4109 5.30983 91.1709 5.0165C90.9362 4.71783 90.5442 4.5685 89.9949 4.5685H89.3309C88.6642 4.5685 88.1869 4.71783 87.8989 5.0165C87.6109 5.30983 87.4669 5.7925 87.4669 6.4645V10.8165C87.4669 11.1525 87.2989 11.3205 86.9629 11.3205C86.6269 11.3205 86.4589 11.1525 86.4589 10.8165V4.0725C86.4589 3.7365 86.6269 3.5685 86.9629 3.5685C87.2989 3.5685 87.4669 3.7365 87.4669 4.0725V4.6085C87.7175 4.23517 88.0055 3.9685 88.3309 3.8085C88.6615 3.64317 89.0695 3.5605 89.5549 3.5605H89.9949C90.5869 3.5605 91.0589 3.6565 91.4109 3.8485C91.7682 4.03517 92.0455 4.3445 92.2429 4.7765C92.4882 4.33917 92.7789 4.02717 93.1149 3.8405C93.4509 3.65383 93.8802 3.5605 94.4029 3.5605H95.0669ZM100.704 2.1605C100.288 2.1605 100.08 1.94983 100.08 1.5285V1.1285C100.08 0.717833 100.288 0.5125 100.704 0.5125H101.096C101.496 0.5125 101.696 0.717833 101.696 1.1285V1.5285C101.696 1.94983 101.496 2.1605 101.096 2.1605H100.704ZM100.896 11.3125C100.56 11.3125 100.392 11.1445 100.392 10.8085V4.0725C100.392 3.7365 100.56 3.5685 100.896 3.5685C101.232 3.5685 101.4 3.7365 101.4 4.0725V10.8085C101.4 11.1445 101.232 11.3125 100.896 11.3125ZM110.781 11.3125C110.008 11.3125 109.434 11.1285 109.061 10.7605C108.693 10.3872 108.509 9.8165 108.509 9.0485V0.664499C108.509 0.328499 108.677 0.1605 109.013 0.1605C109.349 0.1605 109.517 0.328499 109.517 0.664499V9.0485C109.517 9.53383 109.605 9.8645 109.781 10.0405C109.957 10.2165 110.288 10.3045 110.773 10.3045C111.12 10.3045 111.293 10.4725 111.293 10.8085C111.304 11.1445 111.133 11.3125 110.781 11.3125ZM112.118 3.4165C111.958 3.4165 111.83 3.35517 111.734 3.2325C111.638 3.10983 111.63 2.95783 111.71 2.7765L112.486 0.968499L113.318 1.3205L112.542 3.1205C112.505 3.2165 112.449 3.29117 112.374 3.3445C112.305 3.3925 112.219 3.4165 112.118 3.4165ZM112.518 1.6245C112.171 1.6245 111.998 1.4485 111.998 1.0965V0.7605C111.998 0.419167 112.171 0.2485 112.518 0.2485H112.846C113.182 0.2485 113.35 0.419167 113.35 0.7605V1.0965C113.35 1.4485 113.182 1.6245 112.846 1.6245H112.518ZM122.386 3.5685C122.722 3.5685 122.89 3.7365 122.89 4.0725V10.8085C122.89 11.1445 122.722 11.3125 122.386 11.3125C122.05 11.3125 121.882 11.1445 121.882 10.8085V10.2085C121.359 10.9445 120.471 11.3125 119.218 11.3125H118.77C117.751 11.3125 117.002 11.0725 116.522 10.5925C116.042 10.1125 115.802 9.36317 115.802 8.3445V4.0725C115.802 3.7365 115.97 3.5685 116.306 3.5685C116.642 3.5685 116.81 3.7365 116.81 4.0725V8.3445C116.81 9.0805 116.951 9.5925 117.234 9.8805C117.522 10.1632 118.034 10.3045 118.77 10.3045H119.218C119.981 10.3045 120.599 10.1925 121.074 9.9685C121.554 9.73917 121.823 9.38983 121.882 8.9205V4.0725C121.882 3.7365 122.05 3.5685 122.386 3.5685ZM126.329 11.3125C125.993 11.3125 125.825 11.1445 125.825 10.8085V4.0725C125.825 3.7365 125.993 3.5685 126.329 3.5685C126.665 3.5685 126.833 3.7365 126.833 4.0725V4.6645C127.361 3.93383 128.249 3.5685 129.497 3.5685H129.945C130.969 3.5685 131.718 3.8085 132.193 4.2885C132.673 4.76317 132.913 5.5125 132.913 6.5365V10.8085C132.913 11.1445 132.745 11.3125 132.409 11.3125C132.073 11.3125 131.905 11.1445 131.905 10.8085V6.5365C131.905 5.79517 131.761 5.28317 131.473 5.0005C131.19 4.71783 130.681 4.5765 129.945 4.5765H129.497C128.734 4.5765 128.115 4.6885 127.641 4.9125C127.166 5.1365 126.897 5.48583 126.833 5.9605V10.8085C126.833 11.1445 126.665 11.3125 126.329 11.3125ZM136.432 7.8405V8.3605C136.432 9.09117 136.573 9.59783 136.856 9.8805C137.144 10.1632 137.656 10.3045 138.392 10.3045H139.704C140.338 10.3045 140.8 10.2298 141.088 10.0805C141.381 9.93117 141.56 9.6725 141.624 9.3045C141.661 9.1445 141.72 9.0245 141.8 8.9445C141.88 8.8645 142 8.8245 142.16 8.8245C142.325 8.8245 142.45 8.86983 142.536 8.9605C142.626 9.04583 142.658 9.17383 142.632 9.3445C142.546 10.0112 142.261 10.5072 141.776 10.8325C141.296 11.1525 140.605 11.3125 139.704 11.3125H138.392C137.373 11.3125 136.624 11.0725 136.144 10.5925C135.664 10.1125 135.424 9.3685 135.424 8.3605V6.5365C135.424 5.50183 135.664 4.74717 136.144 4.2725C136.624 3.7925 137.373 3.55783 138.392 3.5685H139.704C140.728 3.5685 141.477 3.8085 141.952 4.2885C142.432 4.76317 142.672 5.5125 142.672 6.5365V7.3365C142.672 7.6725 142.504 7.8405 142.168 7.8405H136.432ZM138.392 4.5765C137.656 4.56583 137.144 4.70183 136.856 4.9845C136.573 5.26717 136.432 5.7845 136.432 6.5365V6.8325H141.664V6.5365C141.664 5.79517 141.522 5.28317 141.24 5.0005C140.957 4.71783 140.445 4.5765 139.704 4.5765H138.392ZM152.211 11.3125C151.193 11.3125 150.443 11.0725 149.963 10.5925C149.483 10.1125 149.243 9.36317 149.243 8.3445V6.5365C149.243 5.5125 149.483 4.76317 149.963 4.2885C150.443 3.8085 151.193 3.5685 152.211 3.5685H155.483V0.664499C155.483 0.328499 155.651 0.1605 155.987 0.1605C156.323 0.1605 156.491 0.328499 156.491 0.664499V10.8085C156.491 11.1445 156.323 11.3125 155.987 11.3125C155.651 11.3125 155.483 11.1445 155.483 10.8085V10.3125C155.249 10.6378 154.915 10.8858 154.483 11.0565C154.051 11.2272 153.497 11.3125 152.819 11.3125H152.211ZM152.211 10.3045H152.819C153.609 10.3045 154.249 10.1872 154.739 9.9525C155.235 9.7125 155.483 9.35517 155.483 8.8805V4.5765H152.211C151.475 4.5765 150.963 4.7205 150.675 5.0085C150.393 5.29117 150.251 5.8005 150.251 6.5365V8.3445C150.251 9.0805 150.393 9.5925 150.675 9.8805C150.963 10.1632 151.475 10.3045 152.211 10.3045ZM159.997 7.8405V8.3605C159.997 9.09117 160.139 9.59783 160.421 9.8805C160.709 10.1632 161.221 10.3045 161.957 10.3045H163.269C163.904 10.3045 164.365 10.2298 164.653 10.0805C164.947 9.93117 165.125 9.6725 165.189 9.3045C165.227 9.1445 165.285 9.0245 165.365 8.9445C165.445 8.8645 165.565 8.8245 165.725 8.8245C165.891 8.8245 166.016 8.86983 166.101 8.9605C166.192 9.04583 166.224 9.17383 166.197 9.3445C166.112 10.0112 165.827 10.5072 165.341 10.8325C164.861 11.1525 164.171 11.3125 163.269 11.3125H161.957C160.939 11.3125 160.189 11.0725 159.709 10.5925C159.229 10.1125 158.989 9.3685 158.989 8.3605V6.5365C158.989 5.50183 159.229 4.74717 159.709 4.2725C160.189 3.7925 160.939 3.55783 161.957 3.5685H163.269C164.293 3.5685 165.043 3.8085 165.517 4.2885C165.997 4.76317 166.237 5.5125 166.237 6.5365V7.3365C166.237 7.6725 166.069 7.8405 165.733 7.8405H159.997ZM161.957 4.5765C161.221 4.56583 160.709 4.70183 160.421 4.9845C160.139 5.26717 159.997 5.7845 159.997 6.5365V6.8325H165.229V6.5365C165.229 5.79517 165.088 5.28317 164.805 5.0005C164.523 4.71783 164.011 4.5765 163.269 4.5765H161.957ZM170.634 11.3045C169.973 11.3045 169.461 11.1658 169.098 10.8885C168.735 10.6058 168.511 10.1792 168.426 9.6085C168.405 9.43783 168.439 9.30717 168.53 9.2165C168.626 9.1205 168.757 9.0725 168.922 9.0725C169.087 9.0725 169.207 9.11517 169.282 9.2005C169.362 9.2805 169.418 9.40317 169.45 9.5685C169.503 9.8405 169.621 10.0298 169.802 10.1365C169.983 10.2432 170.261 10.2965 170.634 10.2965H173.258C173.733 10.2965 174.055 10.2112 174.226 10.0405C174.397 9.86983 174.482 9.54717 174.482 9.0725C174.482 8.59783 174.397 8.27517 174.226 8.1045C174.055 7.93383 173.733 7.8485 173.258 7.8485H170.674C169.954 7.8485 169.415 7.6725 169.058 7.3205C168.706 6.9685 168.53 6.4325 168.53 5.7125C168.53 4.9765 168.706 4.43517 169.058 4.0885C169.41 3.7365 169.949 3.5605 170.674 3.5605H173.178C174.405 3.5605 175.098 4.09117 175.258 5.1525C175.29 5.31783 175.258 5.4485 175.162 5.5445C175.071 5.63517 174.941 5.6805 174.77 5.6805C174.61 5.6805 174.49 5.6405 174.41 5.5605C174.335 5.47517 174.279 5.35517 174.242 5.2005C174.194 4.9605 174.09 4.79517 173.93 4.7045C173.77 4.61383 173.519 4.5685 173.178 4.5685H170.674C170.231 4.5685 169.93 4.64583 169.77 4.8005C169.615 4.95517 169.538 5.25917 169.538 5.7125C169.538 6.1445 169.618 6.4405 169.778 6.6005C169.938 6.7605 170.237 6.8405 170.674 6.8405H173.258C174.015 6.8405 174.575 7.0245 174.938 7.3925C175.306 7.75517 175.49 8.31517 175.49 9.0725C175.49 9.82983 175.306 10.3925 174.938 10.7605C174.575 11.1232 174.015 11.3045 173.258 11.3045H170.634ZM25.5542 35.3125H19.4262C19.0795 35.3125 18.9062 35.1445 18.9062 34.8085C18.9062 34.1632 18.9995 33.6112 19.1862 33.1525C19.3728 32.6885 19.6315 32.2858 19.9622 31.9445C20.2928 31.6032 20.6768 31.2938 21.1142 31.0165C21.5515 30.7338 22.0182 30.4512 22.5142 30.1685C23.0635 29.8538 23.5248 29.5765 23.8982 29.3365C24.2768 29.0965 24.5595 28.8458 24.7462 28.5845C24.9382 28.3178 25.0342 27.9952 25.0342 27.6165C25.0342 26.9392 24.9062 26.4725 24.6502 26.2165C24.3942 25.9605 23.9275 25.8325 23.2502 25.8325H21.5382C20.9622 25.8325 20.5382 25.9258 20.2662 26.1125C19.9995 26.2992 19.8395 26.6298 19.7862 27.1045C19.7648 27.2645 19.7142 27.3872 19.6342 27.4725C19.5542 27.5578 19.4315 27.6005 19.2662 27.6005C19.1008 27.6005 18.9728 27.5552 18.8822 27.4645C18.7968 27.3738 18.7595 27.2432 18.7702 27.0725C18.8502 26.3045 19.1142 25.7392 19.5622 25.3765C20.0155 25.0085 20.6742 24.8245 21.5382 24.8245H23.2502C24.2102 24.8245 24.9142 25.0512 25.3622 25.5045C25.8155 25.9525 26.0422 26.6565 26.0422 27.6165C26.0422 28.1978 25.9035 28.6858 25.6262 29.0805C25.3488 29.4698 24.9808 29.8165 24.5222 30.1205C24.0635 30.4245 23.5595 30.7312 23.0102 31.0405C22.4182 31.3818 21.9035 31.6965 21.4662 31.9845C21.0342 32.2725 20.6875 32.5952 20.4262 32.9525C20.1702 33.3098 20.0102 33.7605 19.9462 34.3045H25.5542C25.8902 34.3045 26.0582 34.4725 26.0582 34.8085C26.0582 35.1445 25.8902 35.3125 25.5542 35.3125ZM34.3269 35.3045C33.6656 35.3045 33.1536 35.1658 32.7909 34.8885C32.4282 34.6058 32.2042 34.1792 32.1189 33.6085C32.0976 33.4378 32.1322 33.3072 32.2229 33.2165C32.3189 33.1205 32.4496 33.0725 32.6149 33.0725C32.7802 33.0725 32.9002 33.1152 32.9749 33.2005C33.0549 33.2805 33.1109 33.4032 33.1429 33.5685C33.1962 33.8405 33.3136 34.0298 33.4949 34.1365C33.6762 34.2432 33.9536 34.2965 34.3269 34.2965H36.9509C37.4256 34.2965 37.7482 34.2112 37.9189 34.0405C38.0896 33.8698 38.1749 33.5472 38.1749 33.0725C38.1749 32.5978 38.0896 32.2752 37.9189 32.1045C37.7482 31.9338 37.4256 31.8485 36.9509 31.8485H34.3669C33.6469 31.8485 33.1082 31.6725 32.7509 31.3205C32.3989 30.9685 32.2229 30.4325 32.2229 29.7125C32.2229 28.9765 32.3989 28.4352 32.7509 28.0885C33.1029 27.7365 33.6416 27.5605 34.3669 27.5605H36.8709C38.0976 27.5605 38.7909 28.0912 38.9509 29.1525C38.9829 29.3178 38.9509 29.4485 38.8549 29.5445C38.7642 29.6352 38.6336 29.6805 38.4629 29.6805C38.3029 29.6805 38.1829 29.6405 38.1029 29.5605C38.0282 29.4752 37.9722 29.3552 37.9349 29.2005C37.8869 28.9605 37.7829 28.7952 37.6229 28.7045C37.4629 28.6138 37.2122 28.5685 36.8709 28.5685H34.3669C33.9242 28.5685 33.6229 28.6458 33.4629 28.8005C33.3082 28.9552 33.2309 29.2592 33.2309 29.7125C33.2309 30.1445 33.3109 30.4405 33.4709 30.6005C33.6309 30.7605 33.9296 30.8405 34.3669 30.8405H36.9509C37.7082 30.8405 38.2682 31.0245 38.6309 31.3925C38.9989 31.7552 39.1829 32.3152 39.1829 33.0725C39.1829 33.8298 38.9989 34.3925 38.6309 34.7605C38.2682 35.1232 37.7082 35.3045 36.9509 35.3045H34.3269ZM44.3297 35.3125C43.311 35.3125 42.5617 35.0725 42.0817 34.5925C41.6017 34.1125 41.3617 33.3685 41.3617 32.3605V30.5365C41.3617 29.5072 41.6017 28.7552 42.0817 28.2805C42.5617 27.8005 43.311 27.5632 44.3297 27.5685H45.6417C46.6657 27.5685 47.415 27.8085 47.8897 28.2885C48.3697 28.7632 48.6097 29.5125 48.6097 30.5365V32.3445C48.6097 33.3632 48.3697 34.1125 47.8897 34.5925C47.415 35.0725 46.6657 35.3125 45.6417 35.3125H44.3297ZM42.3697 32.3605C42.3697 33.0912 42.511 33.5978 42.7937 33.8805C43.0817 34.1632 43.5937 34.3045 44.3297 34.3045H45.6417C46.383 34.3045 46.895 34.1632 47.1777 33.8805C47.4603 33.5925 47.6017 33.0805 47.6017 32.3445V30.5365C47.6017 29.7952 47.4603 29.2832 47.1777 29.0005C46.895 28.7178 46.383 28.5765 45.6417 28.5765H44.3297C43.839 28.5712 43.4497 28.6298 43.1617 28.7525C42.879 28.8698 42.6763 29.0725 42.5537 29.3605C42.431 29.6432 42.3697 30.0352 42.3697 30.5365V32.3605ZM57.7022 27.5685C58.0382 27.5685 58.2062 27.7365 58.2062 28.0725V34.8085C58.2062 35.1445 58.0382 35.3125 57.7022 35.3125C57.3662 35.3125 57.1982 35.1445 57.1982 34.8085V34.2085C56.6755 34.9445 55.7875 35.3125 54.5342 35.3125H54.0862C53.0675 35.3125 52.3182 35.0725 51.8382 34.5925C51.3582 34.1125 51.1182 33.3632 51.1182 32.3445V28.0725C51.1182 27.7365 51.2862 27.5685 51.6222 27.5685C51.9582 27.5685 52.1262 27.7365 52.1262 28.0725V32.3445C52.1262 33.0805 52.2675 33.5925 52.5502 33.8805C52.8382 34.1632 53.3502 34.3045 54.0862 34.3045H54.5342C55.2968 34.3045 55.9155 34.1925 56.3902 33.9685C56.8702 33.7392 57.1395 33.3898 57.1982 32.9205V28.0725C57.1982 27.7365 57.3662 27.5685 57.7022 27.5685ZM62.877 35.3045C62.2157 35.3045 61.7037 35.1658 61.341 34.8885C60.9784 34.6058 60.7544 34.1792 60.669 33.6085C60.6477 33.4378 60.6824 33.3072 60.773 33.2165C60.869 33.1205 60.9997 33.0725 61.165 33.0725C61.3304 33.0725 61.4504 33.1152 61.525 33.2005C61.605 33.2805 61.661 33.4032 61.693 33.5685C61.7464 33.8405 61.8637 34.0298 62.045 34.1365C62.2264 34.2432 62.5037 34.2965 62.877 34.2965H65.501C65.9757 34.2965 66.2984 34.2112 66.469 34.0405C66.6397 33.8698 66.725 33.5472 66.725 33.0725C66.725 32.5978 66.6397 32.2752 66.469 32.1045C66.2984 31.9338 65.9757 31.8485 65.501 31.8485H62.917C62.197 31.8485 61.6584 31.6725 61.301 31.3205C60.949 30.9685 60.773 30.4325 60.773 29.7125C60.773 28.9765 60.949 28.4352 61.301 28.0885C61.653 27.7365 62.1917 27.5605 62.917 27.5605H65.421C66.6477 27.5605 67.341 28.0912 67.501 29.1525C67.533 29.3178 67.501 29.4485 67.405 29.5445C67.3144 29.6352 67.1837 29.6805 67.013 29.6805C66.853 29.6805 66.733 29.6405 66.653 29.5605C66.5784 29.4752 66.5224 29.3552 66.485 29.2005C66.437 28.9605 66.333 28.7952 66.173 28.7045C66.013 28.6138 65.7624 28.5685 65.421 28.5685H62.917C62.4744 28.5685 62.173 28.6458 62.013 28.8005C61.8584 28.9552 61.781 29.2592 61.781 29.7125C61.781 30.1445 61.861 30.4405 62.021 30.6005C62.181 30.7605 62.4797 30.8405 62.917 30.8405H65.501C66.2584 30.8405 66.8184 31.0245 67.181 31.3925C67.549 31.7552 67.733 32.3152 67.733 33.0725C67.733 33.8298 67.549 34.3925 67.181 34.7605C66.8184 35.1232 66.2584 35.3045 65.501 35.3045H62.877ZM70.3118 31.4405C70.1891 31.4405 70.0824 31.3978 69.9918 31.3125C69.9064 31.2218 69.8638 31.1152 69.8638 30.9925C69.8638 30.8645 69.9064 30.7578 69.9918 30.6725C70.0824 30.5872 70.1891 30.5445 70.3118 30.5445H74.7278C74.8558 30.5445 74.9624 30.5872 75.0478 30.6725C75.1331 30.7578 75.1758 30.8645 75.1758 30.9925C75.1758 31.1152 75.1331 31.2218 75.0478 31.3125C74.9624 31.3978 74.8558 31.4405 74.7278 31.4405H70.3118ZM80.0007 35.3125C78.982 35.3125 78.2327 35.0725 77.7527 34.5925C77.2727 34.1125 77.0327 33.3632 77.0327 32.3445V30.5205C77.0327 29.4965 77.27 28.7472 77.7447 28.2725C78.2247 27.7925 78.9767 27.5578 80.0007 27.5685H81.3127C82.102 27.5685 82.71 27.7018 83.1367 27.9685C83.5633 28.2298 83.8247 28.6432 83.9207 29.2085C83.9527 29.3738 83.9207 29.5045 83.8247 29.6005C83.734 29.6912 83.6007 29.7365 83.4247 29.7365C83.27 29.7365 83.1553 29.6965 83.0807 29.6165C83.006 29.5312 82.9447 29.4165 82.8967 29.2725C82.8327 29.0165 82.678 28.8378 82.4327 28.7365C82.1927 28.6298 81.8193 28.5765 81.3127 28.5765H80.0007C79.2647 28.5658 78.7527 28.7018 78.4647 28.9845C78.182 29.2618 78.0407 29.7738 78.0407 30.5205V32.3445C78.0407 33.0805 78.182 33.5925 78.4647 33.8805C78.7527 34.1632 79.2647 34.3045 80.0007 34.3045H81.3127C81.8193 34.3045 82.1927 34.2538 82.4327 34.1525C82.678 34.0458 82.8327 33.8645 82.8967 33.6085C82.9447 33.4538 83.006 33.3392 83.0807 33.2645C83.1607 33.1845 83.278 33.1445 83.4327 33.1445C83.6033 33.1445 83.734 33.1898 83.8247 33.2805C83.9207 33.3712 83.9527 33.5018 83.9207 33.6725C83.8247 34.2272 83.5633 34.6405 83.1367 34.9125C82.71 35.1792 82.102 35.3125 81.3127 35.3125H80.0007ZM88.441 35.3125C87.593 35.3125 86.9664 35.1098 86.561 34.7045C86.1557 34.2992 85.953 33.6725 85.953 32.8245C85.953 31.9712 86.1557 31.3418 86.561 30.9365C86.9664 30.5312 87.593 30.3285 88.441 30.3285H92.001C91.9797 29.6725 91.8224 29.2165 91.529 28.9605C91.241 28.7045 90.745 28.5765 90.041 28.5765H89.113C88.4837 28.5765 88.0197 28.6378 87.721 28.7605C87.4277 28.8778 87.2384 29.0832 87.153 29.3765C87.0997 29.5365 87.033 29.6538 86.953 29.7285C86.8784 29.7978 86.7637 29.8325 86.609 29.8325C86.4437 29.8325 86.313 29.7872 86.217 29.6965C86.1264 29.6005 86.0944 29.4725 86.121 29.3125C86.2224 28.7045 86.5184 28.2618 87.009 27.9845C87.4997 27.7072 88.201 27.5685 89.113 27.5685H90.041C91.065 27.5685 91.8144 27.8085 92.289 28.2885C92.769 28.7632 93.009 29.5125 93.009 30.5365V34.8085C93.009 35.1445 92.841 35.3125 92.505 35.3125C92.169 35.3125 92.001 35.1445 92.001 34.8085V34.1525C91.473 34.9258 90.585 35.3125 89.337 35.3125H88.441ZM88.441 34.3045H89.337C89.817 34.3045 90.2437 34.2538 90.617 34.1525C90.9957 34.0512 91.305 33.8832 91.545 33.6485C91.7904 33.4138 91.9424 33.0965 92.001 32.6965V31.3365H88.441C87.8704 31.3365 87.481 31.4405 87.273 31.6485C87.065 31.8565 86.961 32.2485 86.961 32.8245C86.961 33.3952 87.065 33.7845 87.273 33.9925C87.481 34.2005 87.8704 34.3045 88.441 34.3045ZM98.9808 35.3125C97.9728 35.3125 97.2341 35.0778 96.7648 34.6085C96.2954 34.1392 96.0608 33.4058 96.0608 32.4085V28.5765H95.1648C94.8288 28.5765 94.6608 28.4085 94.6608 28.0725C94.6608 27.7365 94.8288 27.5685 95.1648 27.5685H96.0608V26.0325C96.0608 25.6965 96.2288 25.5285 96.5648 25.5285C96.9008 25.5285 97.0688 25.6965 97.0688 26.0325V27.5685H99.0208C99.3568 27.5685 99.5248 27.7365 99.5248 28.0725C99.5248 28.4085 99.3568 28.5765 99.0208 28.5765H97.0688V32.4085C97.0688 33.1285 97.2074 33.6245 97.4848 33.8965C97.7621 34.1685 98.2608 34.3045 98.9808 34.3045C99.1568 34.3045 99.2848 34.3472 99.3648 34.4325C99.4501 34.5125 99.4928 34.6378 99.4928 34.8085C99.4928 35.1445 99.3221 35.3125 98.9808 35.3125ZM104.051 26.5765C103.827 26.3792 103.808 26.1632 103.995 25.9285L105.299 24.3765C105.496 24.1365 105.712 24.1178 105.947 24.3205C106.176 24.5072 106.195 24.7232 106.003 24.9685L104.699 26.5205C104.512 26.7605 104.296 26.7792 104.051 26.5765ZM101.763 31.8405V32.3605C101.763 33.0912 101.904 33.5978 102.187 33.8805C102.475 34.1632 102.987 34.3045 103.723 34.3045H105.035C105.669 34.3045 106.131 34.2298 106.419 34.0805C106.712 33.9312 106.891 33.6725 106.955 33.3045C106.992 33.1445 107.051 33.0245 107.131 32.9445C107.211 32.8645 107.331 32.8245 107.491 32.8245C107.656 32.8245 107.781 32.8698 107.867 32.9605C107.957 33.0458 107.989 33.1738 107.963 33.3445C107.877 34.0112 107.592 34.5072 107.107 34.8325C106.627 35.1525 105.936 35.3125 105.035 35.3125H103.723C102.704 35.3125 101.955 35.0725 101.475 34.5925C100.995 34.1125 100.755 33.3685 100.755 32.3605V30.5365C100.755 29.5018 100.995 28.7472 101.475 28.2725C101.955 27.7925 102.704 27.5578 103.723 27.5685H105.035C106.059 27.5685 106.808 27.8085 107.283 28.2885C107.763 28.7632 108.003 29.5125 108.003 30.5365V31.3365C108.003 31.6725 107.835 31.8405 107.499 31.8405H101.763ZM103.723 28.5765C102.987 28.5658 102.475 28.7018 102.187 28.9845C101.904 29.2672 101.763 29.7845 101.763 30.5365V30.8325H106.995V30.5365C106.995 29.7952 106.853 29.2832 106.571 29.0005C106.288 28.7178 105.776 28.5765 105.035 28.5765H103.723ZM112.527 38.5125C111.892 38.5125 111.404 38.3818 111.063 38.1205C110.722 37.8592 110.511 37.4565 110.431 36.9125C110.41 36.7418 110.442 36.6085 110.527 36.5125C110.618 36.4218 110.748 36.3765 110.919 36.3765C111.079 36.3765 111.196 36.4165 111.271 36.4965C111.346 36.5818 111.402 36.7072 111.439 36.8725C111.487 37.1125 111.594 37.2778 111.759 37.3685C111.924 37.4592 112.18 37.5045 112.527 37.5045H115.503C115.951 37.5045 116.25 37.4272 116.399 37.2725C116.554 37.1178 116.631 36.8192 116.631 36.3765V34.2245C116.375 34.5818 116.026 34.8538 115.583 35.0405C115.146 35.2218 114.607 35.3125 113.967 35.3125H113.359C112.34 35.3125 111.591 35.0725 111.111 34.5925C110.631 34.1125 110.391 33.3685 110.391 32.3605V30.5365C110.391 29.5072 110.628 28.7552 111.103 28.2805C111.583 27.8058 112.335 27.5685 113.359 27.5685H114.671C115.146 27.5685 115.543 27.6352 115.863 27.7685C116.183 27.8965 116.439 28.0965 116.631 28.3685V28.0725C116.631 27.7365 116.799 27.5685 117.135 27.5685C117.471 27.5685 117.639 27.7365 117.639 28.0725V36.3765C117.639 37.1072 117.466 37.6458 117.119 37.9925C116.778 38.3392 116.239 38.5125 115.503 38.5125H112.527ZM113.359 34.3045H113.967C114.756 34.3045 115.396 34.1872 115.887 33.9525C116.383 33.7178 116.631 33.3605 116.631 32.8805V30.0325C116.631 29.4885 116.466 29.1098 116.135 28.8965C115.81 28.6832 115.322 28.5765 114.671 28.5765H113.359C112.623 28.5765 112.111 28.7152 111.823 28.9925C111.54 29.2698 111.399 29.7845 111.399 30.5365V32.3605C111.399 33.0858 111.54 33.5925 111.823 33.8805C112.111 34.1632 112.623 34.3045 113.359 34.3045ZM123.105 35.3125C122.086 35.3125 121.337 35.0725 120.857 34.5925C120.377 34.1125 120.137 33.3685 120.137 32.3605V30.5365C120.137 29.5072 120.377 28.7552 120.857 28.2805C121.337 27.8005 122.086 27.5632 123.105 27.5685H124.417C125.441 27.5685 126.19 27.8085 126.665 28.2885C127.145 28.7632 127.385 29.5125 127.385 30.5365V32.3445C127.385 33.3632 127.145 34.1125 126.665 34.5925C126.19 35.0725 125.441 35.3125 124.417 35.3125H123.105ZM121.145 32.3605C121.145 33.0912 121.286 33.5978 121.569 33.8805C121.857 34.1632 122.369 34.3045 123.105 34.3045H124.417C125.158 34.3045 125.67 34.1632 125.953 33.8805C126.236 33.5925 126.377 33.0805 126.377 32.3445V30.5365C126.377 29.7952 126.236 29.2832 125.953 29.0005C125.67 28.7178 125.158 28.5765 124.417 28.5765H123.105C122.614 28.5712 122.225 28.6298 121.937 28.7525C121.654 28.8698 121.452 29.0725 121.329 29.3605C121.206 29.6432 121.145 30.0352 121.145 30.5365V32.3605ZM130.55 35.3125C130.214 35.3125 130.046 35.1445 130.046 34.8085V28.0725C130.046 27.7365 130.214 27.5685 130.55 27.5685C130.886 27.5685 131.054 27.7365 131.054 28.0725V29.0965C131.347 28.6005 131.75 28.2218 132.262 27.9605C132.774 27.6992 133.374 27.5685 134.062 27.5685C134.398 27.5685 134.566 27.7365 134.566 28.0725C134.566 28.4085 134.398 28.5765 134.062 28.5765C133.123 28.5765 132.398 28.7765 131.886 29.1765C131.379 29.5765 131.102 30.1338 131.054 30.8485V34.8085C131.054 35.1445 130.886 35.3125 130.55 35.3125ZM136.478 26.1605C136.062 26.1605 135.854 25.9498 135.854 25.5285V25.1285C135.854 24.7178 136.062 24.5125 136.478 24.5125H136.87C137.27 24.5125 137.47 24.7178 137.47 25.1285V25.5285C137.47 25.9498 137.27 26.1605 136.87 26.1605H136.478ZM136.67 35.3125C136.334 35.3125 136.166 35.1445 136.166 34.8085V28.0725C136.166 27.7365 136.334 27.5685 136.67 27.5685C137.006 27.5685 137.174 27.7365 137.174 28.0725V34.8085C137.174 35.1445 137.006 35.3125 136.67 35.3125ZM140.836 31.8405V32.3605C140.836 33.0912 140.977 33.5978 141.26 33.8805C141.548 34.1632 142.06 34.3045 142.796 34.3045H144.108C144.742 34.3045 145.204 34.2298 145.492 34.0805C145.785 33.9312 145.964 33.6725 146.028 33.3045C146.065 33.1445 146.124 33.0245 146.204 32.9445C146.284 32.8645 146.404 32.8245 146.564 32.8245C146.729 32.8245 146.854 32.8698 146.94 32.9605C147.03 33.0458 147.062 33.1738 147.036 33.3445C146.95 34.0112 146.665 34.5072 146.18 34.8325C145.7 35.1525 145.009 35.3125 144.108 35.3125H142.796C141.777 35.3125 141.028 35.0725 140.548 34.5925C140.068 34.1125 139.828 33.3685 139.828 32.3605V30.5365C139.828 29.5018 140.068 28.7472 140.548 28.2725C141.028 27.7925 141.777 27.5578 142.796 27.5685H144.108C145.132 27.5685 145.881 27.8085 146.356 28.2885C146.836 28.7632 147.076 29.5125 147.076 30.5365V31.3365C147.076 31.6725 146.908 31.8405 146.572 31.8405H140.836ZM142.796 28.5765C142.06 28.5658 141.548 28.7018 141.26 28.9845C140.977 29.2672 140.836 29.7845 140.836 30.5365V30.8325H146.068V30.5365C146.068 29.7952 145.926 29.2832 145.644 29.0005C145.361 28.7178 144.849 28.5765 144.108 28.5765H142.796ZM151.472 35.3045C150.811 35.3045 150.299 35.1658 149.936 34.8885C149.574 34.6058 149.35 34.1792 149.264 33.6085C149.243 33.4378 149.278 33.3072 149.368 33.2165C149.464 33.1205 149.595 33.0725 149.76 33.0725C149.926 33.0725 150.046 33.1152 150.12 33.2005C150.2 33.2805 150.256 33.4032 150.288 33.5685C150.342 33.8405 150.459 34.0298 150.64 34.1365C150.822 34.2432 151.099 34.2965 151.472 34.2965H154.096C154.571 34.2965 154.894 34.2112 155.064 34.0405C155.235 33.8698 155.32 33.5472 155.32 33.0725C155.32 32.5978 155.235 32.2752 155.064 32.1045C154.894 31.9338 154.571 31.8485 154.096 31.8485H151.512C150.792 31.8485 150.254 31.6725 149.896 31.3205C149.544 30.9685 149.368 30.4325 149.368 29.7125C149.368 28.9765 149.544 28.4352 149.896 28.0885C150.248 27.7365 150.787 27.5605 151.512 27.5605H154.016C155.243 27.5605 155.936 28.0912 156.096 29.1525C156.128 29.3178 156.096 29.4485 156 29.5445C155.91 29.6352 155.779 29.6805 155.608 29.6805C155.448 29.6805 155.328 29.6405 155.248 29.5605C155.174 29.4752 155.118 29.3552 155.08 29.2005C155.032 28.9605 154.928 28.7952 154.768 28.7045C154.608 28.6138 154.358 28.5685 154.016 28.5685H151.512C151.07 28.5685 150.768 28.6458 150.608 28.8005C150.454 28.9552 150.376 29.2592 150.376 29.7125C150.376 30.1445 150.456 30.4405 150.616 30.6005C150.776 30.7605 151.075 30.8405 151.512 30.8405H154.096C154.854 30.8405 155.414 31.0245 155.776 31.3925C156.144 31.7552 156.328 32.3152 156.328 33.0725C156.328 33.8298 156.144 34.3925 155.776 34.7605C155.414 35.1232 154.854 35.3045 154.096 35.3045H151.472Z" fill="#586E91"/>
</svg>
