<svg width="189" height="329" viewBox="0 0 189 329" fill="none" xmlns="http://www.w3.org/2000/svg">
<path d="M10.3904 298.718C9.21175 298.718 8.34775 298.443 7.79841 297.894C7.24908 297.345 6.97441 296.481 6.97441 295.302V291.646C6.97441 290.457 7.24908 289.59 7.79841 289.046C8.34775 288.497 9.20641 288.225 10.3744 288.23H12.3104C13.3024 288.23 14.0464 288.435 14.5424 288.846C15.0384 289.251 15.3157 289.905 15.3744 290.806C15.3957 290.971 15.3637 291.099 15.2784 291.19C15.1931 291.281 15.0651 291.326 14.8944 291.326C14.5851 291.326 14.4091 291.158 14.3664 290.822C14.3237 290.214 14.1451 289.798 13.8304 289.574C13.5211 289.35 13.0144 289.238 12.3104 289.238H10.3744C9.77708 289.233 9.30508 289.305 8.95841 289.454C8.61175 289.603 8.36108 289.854 8.20641 290.206C8.05708 290.558 7.98241 291.038 7.98241 291.646V295.302C7.98241 295.899 8.05708 296.374 8.20641 296.726C8.36108 297.078 8.61441 297.331 8.96641 297.486C9.31841 297.635 9.79308 297.71 10.3904 297.71H12.3104C13.0144 297.71 13.5211 297.598 13.8304 297.374C14.1451 297.145 14.3237 296.729 14.3664 296.126C14.4091 295.79 14.5851 295.622 14.8944 295.622C15.0651 295.622 15.1931 295.667 15.2784 295.758C15.3637 295.843 15.3957 295.971 15.3744 296.142C15.3157 297.038 15.0384 297.691 14.5424 298.102C14.0464 298.513 13.3024 298.718 12.3104 298.718H10.3904ZM18.3869 298.718C18.0509 298.718 17.8829 298.55 17.8829 298.214V288.07C17.8829 287.734 18.0509 287.566 18.3869 287.566C18.7229 287.566 18.8909 287.734 18.8909 288.07V292.07C19.4189 291.339 20.3069 290.974 21.5549 290.974H22.0029C23.0269 290.974 23.7762 291.214 24.2509 291.694C24.7309 292.169 24.9709 292.918 24.9709 293.942V298.214C24.9709 298.55 24.8029 298.718 24.4669 298.718C24.1309 298.718 23.9629 298.55 23.9629 298.214V293.942C23.9629 293.201 23.8189 292.689 23.5309 292.406C23.2482 292.123 22.7389 291.982 22.0029 291.982H21.5549C20.7922 291.982 20.1736 292.094 19.6989 292.318C19.2242 292.542 18.9549 292.891 18.8909 293.366V298.214C18.8909 298.55 18.7229 298.718 18.3869 298.718ZM30.4498 298.718C29.4311 298.718 28.6818 298.478 28.2018 297.998C27.7218 297.518 27.4818 296.774 27.4818 295.766V293.942C27.4818 292.913 27.7218 292.161 28.2018 291.686C28.6818 291.206 29.4311 290.969 30.4498 290.974H31.7618C32.7858 290.974 33.5351 291.214 34.0098 291.694C34.4898 292.169 34.7298 292.918 34.7298 293.942V295.75C34.7298 296.769 34.4898 297.518 34.0098 297.998C33.5351 298.478 32.7858 298.718 31.7618 298.718H30.4498ZM28.4898 295.766C28.4898 296.497 28.6311 297.003 28.9138 297.286C29.2018 297.569 29.7138 297.71 30.4498 297.71H31.7618C32.5031 297.71 33.0151 297.569 33.2978 297.286C33.5805 296.998 33.7218 296.486 33.7218 295.75V293.942C33.7218 293.201 33.5805 292.689 33.2978 292.406C33.0151 292.123 32.5031 291.982 31.7618 291.982H30.4498C29.9591 291.977 29.5698 292.035 29.2818 292.158C28.9991 292.275 28.7965 292.478 28.6738 292.766C28.5511 293.049 28.4898 293.441 28.4898 293.942V295.766ZM37.7023 289.566C37.2863 289.566 37.0783 289.355 37.0783 288.934V288.534C37.0783 288.123 37.2863 287.918 37.7023 287.918H38.0943C38.4943 287.918 38.6943 288.123 38.6943 288.534V288.934C38.6943 289.355 38.4943 289.566 38.0943 289.566H37.7023ZM37.8943 298.718C37.5583 298.718 37.3903 298.55 37.3903 298.214V291.478C37.3903 291.142 37.5583 290.974 37.8943 290.974C38.2303 290.974 38.3983 291.142 38.3983 291.478V298.214C38.3983 298.55 38.2303 298.718 37.8943 298.718ZM43.0597 298.71C42.3983 298.71 41.8863 298.571 41.5237 298.294C41.161 298.011 40.937 297.585 40.8517 297.014C40.8303 296.843 40.865 296.713 40.9557 296.622C41.0517 296.526 41.1823 296.478 41.3477 296.478C41.513 296.478 41.633 296.521 41.7077 296.606C41.7877 296.686 41.8437 296.809 41.8757 296.974C41.929 297.246 42.0463 297.435 42.2277 297.542C42.409 297.649 42.6863 297.702 43.0597 297.702H45.6837C46.1583 297.702 46.481 297.617 46.6517 297.446C46.8223 297.275 46.9077 296.953 46.9077 296.478C46.9077 296.003 46.8223 295.681 46.6517 295.51C46.481 295.339 46.1583 295.254 45.6837 295.254H43.0997C42.3797 295.254 41.841 295.078 41.4837 294.726C41.1317 294.374 40.9557 293.838 40.9557 293.118C40.9557 292.382 41.1317 291.841 41.4837 291.494C41.8357 291.142 42.3743 290.966 43.0997 290.966H45.6037C46.8303 290.966 47.5237 291.497 47.6837 292.558C47.7157 292.723 47.6837 292.854 47.5877 292.95C47.497 293.041 47.3663 293.086 47.1957 293.086C47.0357 293.086 46.9157 293.046 46.8357 292.966C46.761 292.881 46.705 292.761 46.6677 292.606C46.6197 292.366 46.5157 292.201 46.3557 292.11C46.1957 292.019 45.945 291.974 45.6037 291.974H43.0997C42.657 291.974 42.3557 292.051 42.1957 292.206C42.041 292.361 41.9637 292.665 41.9637 293.118C41.9637 293.55 42.0437 293.846 42.2037 294.006C42.3637 294.166 42.6623 294.246 43.0997 294.246H45.6837C46.441 294.246 47.001 294.43 47.3637 294.798C47.7317 295.161 47.9157 295.721 47.9157 296.478C47.9157 297.235 47.7317 297.798 47.3637 298.166C47.001 298.529 46.441 298.71 45.6837 298.71H43.0597ZM50.6784 289.566C50.2624 289.566 50.0544 289.355 50.0544 288.934V288.534C50.0544 288.123 50.2624 287.918 50.6784 287.918H51.0704C51.4704 287.918 51.6704 288.123 51.6704 288.534V288.934C51.6704 289.355 51.4704 289.566 51.0704 289.566H50.6784ZM50.8704 298.718C50.5344 298.718 50.3664 298.55 50.3664 298.214V291.478C50.3664 291.142 50.5344 290.974 50.8704 290.974C51.2064 290.974 51.3744 291.142 51.3744 291.478V298.214C51.3744 298.55 51.2064 298.718 50.8704 298.718ZM56.0358 298.71C55.3745 298.71 54.8625 298.571 54.4998 298.294C54.1371 298.011 53.9131 297.585 53.8278 297.014C53.8065 296.843 53.8411 296.713 53.9318 296.622C54.0278 296.526 54.1585 296.478 54.3238 296.478C54.4891 296.478 54.6091 296.521 54.6838 296.606C54.7638 296.686 54.8198 296.809 54.8518 296.974C54.9051 297.246 55.0225 297.435 55.2038 297.542C55.3851 297.649 55.6625 297.702 56.0358 297.702H58.6598C59.1345 297.702 59.4571 297.617 59.6278 297.446C59.7985 297.275 59.8838 296.953 59.8838 296.478C59.8838 296.003 59.7985 295.681 59.6278 295.51C59.4571 295.339 59.1345 295.254 58.6598 295.254H56.0758C55.3558 295.254 54.8171 295.078 54.4598 294.726C54.1078 294.374 53.9318 293.838 53.9318 293.118C53.9318 292.382 54.1078 291.841 54.4598 291.494C54.8118 291.142 55.3505 290.966 56.0758 290.966H58.5798C59.8065 290.966 60.4998 291.497 60.6598 292.558C60.6918 292.723 60.6598 292.854 60.5638 292.95C60.4731 293.041 60.3425 293.086 60.1718 293.086C60.0118 293.086 59.8918 293.046 59.8118 292.966C59.7371 292.881 59.6811 292.761 59.6438 292.606C59.5958 292.366 59.4918 292.201 59.3318 292.11C59.1718 292.019 58.9211 291.974 58.5798 291.974H56.0758C55.6331 291.974 55.3318 292.051 55.1718 292.206C55.0171 292.361 54.9398 292.665 54.9398 293.118C54.9398 293.55 55.0198 293.846 55.1798 294.006C55.3398 294.166 55.6385 294.246 56.0758 294.246H58.6598C59.4171 294.246 59.9771 294.43 60.3398 294.798C60.7078 295.161 60.8918 295.721 60.8918 296.478C60.8918 297.235 60.7078 297.798 60.3398 298.166C59.9771 298.529 59.4171 298.71 58.6598 298.71H56.0358ZM68.0299 301.918C67.6939 301.918 67.5259 301.75 67.5259 301.414V291.478C67.5259 291.142 67.6939 290.974 68.0299 290.974C68.3659 290.974 68.5339 291.142 68.5339 291.478V292.014C68.7899 291.673 69.1366 291.414 69.5739 291.238C70.0166 291.062 70.5579 290.974 71.1979 290.974H71.8059C72.8299 290.974 73.5792 291.214 74.0539 291.694C74.5339 292.169 74.7739 292.918 74.7739 293.942V295.75C74.7739 296.769 74.5339 297.518 74.0539 297.998C73.5792 298.478 72.8299 298.718 71.8059 298.718H68.5339V301.414C68.5339 301.75 68.3659 301.918 68.0299 301.918ZM68.5339 297.71H71.8059C72.5472 297.71 73.0592 297.569 73.3419 297.286C73.6246 296.998 73.7659 296.486 73.7659 295.75V293.942C73.7659 293.201 73.6246 292.689 73.3419 292.406C73.0592 292.123 72.5472 291.982 71.8059 291.982H71.1979C70.4086 291.982 69.7792 292.097 69.3099 292.326C68.8459 292.555 68.5872 292.913 68.5339 293.398V297.71ZM79.756 298.718C78.908 298.718 78.2814 298.515 77.876 298.11C77.4707 297.705 77.268 297.078 77.268 296.23C77.268 295.377 77.4707 294.747 77.876 294.342C78.2814 293.937 78.908 293.734 79.756 293.734H83.316C83.2947 293.078 83.1374 292.622 82.844 292.366C82.556 292.11 82.06 291.982 81.356 291.982H80.428C79.7987 291.982 79.3347 292.043 79.036 292.166C78.7427 292.283 78.5534 292.489 78.468 292.782C78.4147 292.942 78.348 293.059 78.268 293.134C78.1934 293.203 78.0787 293.238 77.924 293.238C77.7587 293.238 77.628 293.193 77.532 293.102C77.4414 293.006 77.4094 292.878 77.436 292.718C77.5374 292.11 77.8334 291.667 78.324 291.39C78.8147 291.113 79.516 290.974 80.428 290.974H81.356C82.38 290.974 83.1294 291.214 83.604 291.694C84.084 292.169 84.324 292.918 84.324 293.942V298.214C84.324 298.55 84.156 298.718 83.82 298.718C83.484 298.718 83.316 298.55 83.316 298.214V297.558C82.788 298.331 81.9 298.718 80.652 298.718H79.756ZM79.756 297.71H80.652C81.132 297.71 81.5587 297.659 81.932 297.558C82.3107 297.457 82.62 297.289 82.86 297.054C83.1054 296.819 83.2574 296.502 83.316 296.102V294.742H79.756C79.1854 294.742 78.796 294.846 78.588 295.054C78.38 295.262 78.276 295.654 78.276 296.23C78.276 296.801 78.38 297.19 78.588 297.398C78.796 297.606 79.1854 297.71 79.756 297.71ZM87.5998 298.718C87.2638 298.718 87.0958 298.55 87.0958 298.214V291.478C87.0958 291.142 87.2638 290.974 87.5998 290.974C87.9358 290.974 88.1038 291.142 88.1038 291.478V292.502C88.3971 292.006 88.7998 291.627 89.3118 291.366C89.8238 291.105 90.4238 290.974 91.1118 290.974C91.4478 290.974 91.6158 291.142 91.6158 291.478C91.6158 291.814 91.4478 291.982 91.1118 291.982C90.1731 291.982 89.4478 292.182 88.9358 292.582C88.4291 292.982 88.1518 293.539 88.1038 294.254V298.214C88.1038 298.55 87.9358 298.718 87.5998 298.718ZM101.825 290.966C102.737 290.966 103.387 291.19 103.777 291.638C104.171 292.086 104.369 292.83 104.369 293.87V298.222C104.369 298.558 104.201 298.726 103.865 298.726C103.529 298.726 103.361 298.558 103.361 298.222V293.87C103.361 293.198 103.241 292.715 103.001 292.422C102.766 292.123 102.374 291.974 101.825 291.974H101.161C100.494 291.974 100.017 292.123 99.7287 292.422C99.4407 292.715 99.2967 293.198 99.2967 293.87V298.222C99.2967 298.558 99.1287 298.726 98.7927 298.726C98.4567 298.726 98.2887 298.558 98.2887 298.222V293.87C98.2887 293.198 98.1687 292.715 97.9287 292.422C97.694 292.123 97.302 291.974 96.7527 291.974H96.0887C95.422 291.974 94.9447 292.123 94.6567 292.422C94.3687 292.715 94.2247 293.198 94.2247 293.87V298.222C94.2247 298.558 94.0567 298.726 93.7207 298.726C93.3847 298.726 93.2167 298.558 93.2167 298.222V291.478C93.2167 291.142 93.3847 290.974 93.7207 290.974C94.0567 290.974 94.2247 291.142 94.2247 291.478V292.014C94.4753 291.641 94.7633 291.374 95.0887 291.214C95.4193 291.049 95.8273 290.966 96.3127 290.966H96.7527C97.3447 290.966 97.8167 291.062 98.1687 291.254C98.526 291.441 98.8033 291.75 99.0007 292.182C99.246 291.745 99.5367 291.433 99.8727 291.246C100.209 291.059 100.638 290.966 101.161 290.966H101.825ZM107.462 289.566C107.046 289.566 106.838 289.355 106.838 288.934V288.534C106.838 288.123 107.046 287.918 107.462 287.918H107.854C108.254 287.918 108.454 288.123 108.454 288.534V288.934C108.454 289.355 108.254 289.566 107.854 289.566H107.462ZM107.654 298.718C107.318 298.718 107.15 298.55 107.15 298.214V291.478C107.15 291.142 107.318 290.974 107.654 290.974C107.99 290.974 108.158 291.142 108.158 291.478V298.214C108.158 298.55 107.99 298.718 107.654 298.718ZM117.539 298.718C116.765 298.718 116.192 298.534 115.819 298.166C115.451 297.793 115.267 297.222 115.267 296.454V288.07C115.267 287.734 115.435 287.566 115.771 287.566C116.107 287.566 116.275 287.734 116.275 288.07V296.454C116.275 296.939 116.363 297.27 116.539 297.446C116.715 297.622 117.045 297.71 117.531 297.71C117.877 297.71 118.051 297.878 118.051 298.214C118.061 298.55 117.891 298.718 117.539 298.718ZM118.876 290.822C118.716 290.822 118.588 290.761 118.492 290.638C118.396 290.515 118.388 290.363 118.468 290.182L119.244 288.374L120.076 288.726L119.3 290.526C119.262 290.622 119.206 290.697 119.132 290.75C119.062 290.798 118.977 290.822 118.876 290.822ZM119.276 289.03C118.929 289.03 118.756 288.854 118.756 288.502V288.166C118.756 287.825 118.929 287.654 119.276 287.654H119.604C119.94 287.654 120.108 287.825 120.108 288.166V288.502C120.108 288.854 119.94 289.03 119.604 289.03H119.276ZM129.144 290.974C129.48 290.974 129.648 291.142 129.648 291.478V298.214C129.648 298.55 129.48 298.718 129.144 298.718C128.808 298.718 128.64 298.55 128.64 298.214V297.614C128.117 298.35 127.229 298.718 125.976 298.718H125.528C124.509 298.718 123.76 298.478 123.28 297.998C122.8 297.518 122.56 296.769 122.56 295.75V291.478C122.56 291.142 122.728 290.974 123.064 290.974C123.4 290.974 123.568 291.142 123.568 291.478V295.75C123.568 296.486 123.709 296.998 123.992 297.286C124.28 297.569 124.792 297.71 125.528 297.71H125.976C126.738 297.71 127.357 297.598 127.832 297.374C128.312 297.145 128.581 296.795 128.64 296.326V291.478C128.64 291.142 128.808 290.974 129.144 290.974ZM133.087 298.718C132.751 298.718 132.583 298.55 132.583 298.214V291.478C132.583 291.142 132.751 290.974 133.087 290.974C133.423 290.974 133.591 291.142 133.591 291.478V292.07C134.119 291.339 135.007 290.974 136.255 290.974H136.703C137.727 290.974 138.476 291.214 138.951 291.694C139.431 292.169 139.671 292.918 139.671 293.942V298.214C139.671 298.55 139.503 298.718 139.167 298.718C138.831 298.718 138.663 298.55 138.663 298.214V293.942C138.663 293.201 138.519 292.689 138.231 292.406C137.948 292.123 137.439 291.982 136.703 291.982H136.255C135.492 291.982 134.873 292.094 134.399 292.318C133.924 292.542 133.655 292.891 133.591 293.366V298.214C133.591 298.55 133.423 298.718 133.087 298.718ZM143.189 295.246V295.766C143.189 296.497 143.331 297.003 143.613 297.286C143.901 297.569 144.413 297.71 145.149 297.71H146.461C147.096 297.71 147.557 297.635 147.845 297.486C148.139 297.337 148.317 297.078 148.381 296.71C148.419 296.55 148.477 296.43 148.557 296.35C148.637 296.27 148.757 296.23 148.917 296.23C149.083 296.23 149.208 296.275 149.293 296.366C149.384 296.451 149.416 296.579 149.389 296.75C149.304 297.417 149.019 297.913 148.533 298.238C148.053 298.558 147.363 298.718 146.461 298.718H145.149C144.131 298.718 143.381 298.478 142.901 297.998C142.421 297.518 142.181 296.774 142.181 295.766V293.942C142.181 292.907 142.421 292.153 142.901 291.678C143.381 291.198 144.131 290.963 145.149 290.974H146.461C147.485 290.974 148.235 291.214 148.709 291.694C149.189 292.169 149.429 292.918 149.429 293.942V294.742C149.429 295.078 149.261 295.246 148.925 295.246H143.189ZM145.149 291.982C144.413 291.971 143.901 292.107 143.613 292.39C143.331 292.673 143.189 293.19 143.189 293.942V294.238H148.421V293.942C148.421 293.201 148.28 292.689 147.997 292.406C147.715 292.123 147.203 291.982 146.461 291.982H145.149ZM158.969 298.718C157.951 298.718 157.201 298.478 156.721 297.998C156.241 297.518 156.001 296.769 156.001 295.75V293.942C156.001 292.918 156.241 292.169 156.721 291.694C157.201 291.214 157.951 290.974 158.969 290.974H162.241V288.07C162.241 287.734 162.409 287.566 162.745 287.566C163.081 287.566 163.249 287.734 163.249 288.07V298.214C163.249 298.55 163.081 298.718 162.745 298.718C162.409 298.718 162.241 298.55 162.241 298.214V297.718C162.007 298.043 161.673 298.291 161.241 298.462C160.809 298.633 160.255 298.718 159.577 298.718H158.969ZM158.969 297.71H159.577C160.367 297.71 161.007 297.593 161.497 297.358C161.993 297.118 162.241 296.761 162.241 296.286V291.982H158.969C158.233 291.982 157.721 292.126 157.433 292.414C157.151 292.697 157.009 293.206 157.009 293.942V295.75C157.009 296.486 157.151 296.998 157.433 297.286C157.721 297.569 158.233 297.71 158.969 297.71ZM166.755 295.246V295.766C166.755 296.497 166.896 297.003 167.179 297.286C167.467 297.569 167.979 297.71 168.715 297.71H170.027C170.662 297.71 171.123 297.635 171.411 297.486C171.704 297.337 171.883 297.078 171.947 296.71C171.984 296.55 172.043 296.43 172.123 296.35C172.203 296.27 172.323 296.23 172.483 296.23C172.648 296.23 172.774 296.275 172.859 296.366C172.95 296.451 172.982 296.579 172.955 296.75C172.87 297.417 172.584 297.913 172.099 298.238C171.619 298.558 170.928 298.718 170.027 298.718H168.715C167.696 298.718 166.947 298.478 166.467 297.998C165.987 297.518 165.747 296.774 165.747 295.766V293.942C165.747 292.907 165.987 292.153 166.467 291.678C166.947 291.198 167.696 290.963 168.715 290.974H170.027C171.051 290.974 171.8 291.214 172.275 291.694C172.755 292.169 172.995 292.918 172.995 293.942V294.742C172.995 295.078 172.827 295.246 172.491 295.246H166.755ZM168.715 291.982C167.979 291.971 167.467 292.107 167.179 292.39C166.896 292.673 166.755 293.19 166.755 293.942V294.238H171.987V293.942C171.987 293.201 171.846 292.689 171.563 292.406C171.28 292.123 170.768 291.982 170.027 291.982H168.715ZM177.392 298.71C176.73 298.71 176.218 298.571 175.856 298.294C175.493 298.011 175.269 297.585 175.184 297.014C175.162 296.843 175.197 296.713 175.288 296.622C175.384 296.526 175.514 296.478 175.68 296.478C175.845 296.478 175.965 296.521 176.04 296.606C176.12 296.686 176.176 296.809 176.208 296.974C176.261 297.246 176.378 297.435 176.56 297.542C176.741 297.649 177.018 297.702 177.392 297.702H180.016C180.49 297.702 180.813 297.617 180.984 297.446C181.154 297.275 181.24 296.953 181.24 296.478C181.24 296.003 181.154 295.681 180.984 295.51C180.813 295.339 180.49 295.254 180.016 295.254H177.432C176.712 295.254 176.173 295.078 175.816 294.726C175.464 294.374 175.288 293.838 175.288 293.118C175.288 292.382 175.464 291.841 175.816 291.494C176.168 291.142 176.706 290.966 177.432 290.966H179.936C181.162 290.966 181.856 291.497 182.016 292.558C182.048 292.723 182.016 292.854 181.92 292.95C181.829 293.041 181.698 293.086 181.528 293.086C181.368 293.086 181.248 293.046 181.168 292.966C181.093 292.881 181.037 292.761 181 292.606C180.952 292.366 180.848 292.201 180.688 292.11C180.528 292.019 180.277 291.974 179.936 291.974H177.432C176.989 291.974 176.688 292.051 176.528 292.206C176.373 292.361 176.296 292.665 176.296 293.118C176.296 293.55 176.376 293.846 176.536 294.006C176.696 294.166 176.994 294.246 177.432 294.246H180.016C180.773 294.246 181.333 294.43 181.696 294.798C182.064 295.161 182.248 295.721 182.248 296.478C182.248 297.235 182.064 297.798 181.696 298.166C181.333 298.529 180.773 298.71 180.016 298.71H177.392ZM32.312 322.718H26.184C25.8373 322.718 25.664 322.55 25.664 322.214C25.664 321.569 25.7573 321.017 25.944 320.558C26.1306 320.094 26.3893 319.691 26.72 319.35C27.0506 319.009 27.4346 318.699 27.872 318.422C28.3093 318.139 28.776 317.857 29.272 317.574C29.8213 317.259 30.2826 316.982 30.656 316.742C31.0346 316.502 31.3173 316.251 31.504 315.99C31.696 315.723 31.792 315.401 31.792 315.022C31.792 314.345 31.664 313.878 31.408 313.622C31.152 313.366 30.6853 313.238 30.008 313.238H28.296C27.72 313.238 27.296 313.331 27.024 313.518C26.7573 313.705 26.5973 314.035 26.544 314.51C26.5226 314.67 26.472 314.793 26.392 314.878C26.312 314.963 26.1893 315.006 26.024 315.006C25.8586 315.006 25.7306 314.961 25.64 314.87C25.5546 314.779 25.5173 314.649 25.528 314.478C25.608 313.71 25.872 313.145 26.32 312.782C26.7733 312.414 27.432 312.23 28.296 312.23H30.008C30.968 312.23 31.672 312.457 32.12 312.91C32.5733 313.358 32.8 314.062 32.8 315.022C32.8 315.603 32.6613 316.091 32.384 316.486C32.1066 316.875 31.7386 317.222 31.28 317.526C30.8213 317.83 30.3173 318.137 29.768 318.446C29.176 318.787 28.6613 319.102 28.224 319.39C27.792 319.678 27.4453 320.001 27.184 320.358C26.928 320.715 26.768 321.166 26.704 321.71H32.312C32.648 321.71 32.816 321.878 32.816 322.214C32.816 322.55 32.648 322.718 32.312 322.718ZM41.0847 322.71C40.4234 322.71 39.9114 322.571 39.5487 322.294C39.1861 322.011 38.9621 321.585 38.8767 321.014C38.8554 320.843 38.8901 320.713 38.9807 320.622C39.0767 320.526 39.2074 320.478 39.3727 320.478C39.5381 320.478 39.6581 320.521 39.7327 320.606C39.8127 320.686 39.8687 320.809 39.9007 320.974C39.9541 321.246 40.0714 321.435 40.2527 321.542C40.4341 321.649 40.7114 321.702 41.0847 321.702H43.7087C44.1834 321.702 44.5061 321.617 44.6767 321.446C44.8474 321.275 44.9327 320.953 44.9327 320.478C44.9327 320.003 44.8474 319.681 44.6767 319.51C44.5061 319.339 44.1834 319.254 43.7087 319.254H41.1247C40.4047 319.254 39.8661 319.078 39.5087 318.726C39.1567 318.374 38.9807 317.838 38.9807 317.118C38.9807 316.382 39.1567 315.841 39.5087 315.494C39.8607 315.142 40.3994 314.966 41.1247 314.966H43.6287C44.8554 314.966 45.5487 315.497 45.7087 316.558C45.7407 316.723 45.7087 316.854 45.6127 316.95C45.5221 317.041 45.3914 317.086 45.2207 317.086C45.0607 317.086 44.9407 317.046 44.8607 316.966C44.7861 316.881 44.7301 316.761 44.6927 316.606C44.6447 316.366 44.5407 316.201 44.3807 316.11C44.2207 316.019 43.9701 315.974 43.6287 315.974H41.1247C40.6821 315.974 40.3807 316.051 40.2207 316.206C40.0661 316.361 39.9887 316.665 39.9887 317.118C39.9887 317.55 40.0687 317.846 40.2287 318.006C40.3887 318.166 40.6874 318.246 41.1247 318.246H43.7087C44.4661 318.246 45.0261 318.43 45.3887 318.798C45.7567 319.161 45.9407 319.721 45.9407 320.478C45.9407 321.235 45.7567 321.798 45.3887 322.166C45.0261 322.529 44.4661 322.71 43.7087 322.71H41.0847ZM51.0875 322.718C50.0688 322.718 49.3195 322.478 48.8395 321.998C48.3595 321.518 48.1195 320.774 48.1195 319.766V317.942C48.1195 316.913 48.3595 316.161 48.8395 315.686C49.3195 315.206 50.0688 314.969 51.0875 314.974H52.3995C53.4235 314.974 54.1728 315.214 54.6475 315.694C55.1275 316.169 55.3675 316.918 55.3675 317.942V319.75C55.3675 320.769 55.1275 321.518 54.6475 321.998C54.1728 322.478 53.4235 322.718 52.3995 322.718H51.0875ZM49.1275 319.766C49.1275 320.497 49.2688 321.003 49.5515 321.286C49.8395 321.569 50.3515 321.71 51.0875 321.71H52.3995C53.1408 321.71 53.6528 321.569 53.9355 321.286C54.2181 320.998 54.3595 320.486 54.3595 319.75V317.942C54.3595 317.201 54.2181 316.689 53.9355 316.406C53.6528 316.123 53.1408 315.982 52.3995 315.982H51.0875C50.5968 315.977 50.2075 316.035 49.9195 316.158C49.6368 316.275 49.4341 316.478 49.3115 316.766C49.1888 317.049 49.1275 317.441 49.1275 317.942V319.766ZM64.46 314.974C64.796 314.974 64.964 315.142 64.964 315.478V322.214C64.964 322.55 64.796 322.718 64.46 322.718C64.124 322.718 63.956 322.55 63.956 322.214V321.614C63.4333 322.35 62.5453 322.718 61.292 322.718H60.844C59.8253 322.718 59.076 322.478 58.596 321.998C58.116 321.518 57.876 320.769 57.876 319.75V315.478C57.876 315.142 58.044 314.974 58.38 314.974C58.716 314.974 58.884 315.142 58.884 315.478V319.75C58.884 320.486 59.0253 320.998 59.308 321.286C59.596 321.569 60.108 321.71 60.844 321.71H61.292C62.0546 321.71 62.6733 321.598 63.148 321.374C63.628 321.145 63.8973 320.795 63.956 320.326V315.478C63.956 315.142 64.124 314.974 64.46 314.974ZM69.6348 322.71C68.9735 322.71 68.4615 322.571 68.0988 322.294C67.7362 322.011 67.5122 321.585 67.4268 321.014C67.4055 320.843 67.4402 320.713 67.5308 320.622C67.6268 320.526 67.7575 320.478 67.9228 320.478C68.0882 320.478 68.2082 320.521 68.2828 320.606C68.3628 320.686 68.4188 320.809 68.4508 320.974C68.5042 321.246 68.6215 321.435 68.8028 321.542C68.9842 321.649 69.2615 321.702 69.6348 321.702H72.2588C72.7335 321.702 73.0562 321.617 73.2268 321.446C73.3975 321.275 73.4828 320.953 73.4828 320.478C73.4828 320.003 73.3975 319.681 73.2268 319.51C73.0562 319.339 72.7335 319.254 72.2588 319.254H69.6748C68.9548 319.254 68.4162 319.078 68.0588 318.726C67.7068 318.374 67.5308 317.838 67.5308 317.118C67.5308 316.382 67.7068 315.841 68.0588 315.494C68.4108 315.142 68.9495 314.966 69.6748 314.966H72.1788C73.4055 314.966 74.0988 315.497 74.2588 316.558C74.2908 316.723 74.2588 316.854 74.1628 316.95C74.0722 317.041 73.9415 317.086 73.7708 317.086C73.6108 317.086 73.4908 317.046 73.4108 316.966C73.3362 316.881 73.2802 316.761 73.2428 316.606C73.1948 316.366 73.0908 316.201 72.9308 316.11C72.7708 316.019 72.5202 315.974 72.1788 315.974H69.6748C69.2322 315.974 68.9308 316.051 68.7708 316.206C68.6162 316.361 68.5388 316.665 68.5388 317.118C68.5388 317.55 68.6188 317.846 68.7788 318.006C68.9388 318.166 69.2375 318.246 69.6748 318.246H72.2588C73.0162 318.246 73.5762 318.43 73.9388 318.798C74.3068 319.161 74.4908 319.721 74.4908 320.478C74.4908 321.235 74.3068 321.798 73.9388 322.166C73.5762 322.529 73.0162 322.71 72.2588 322.71H69.6348ZM77.0696 318.846C76.9469 318.846 76.8403 318.803 76.7496 318.718C76.6643 318.627 76.6216 318.521 76.6216 318.398C76.6216 318.27 76.6643 318.163 76.7496 318.078C76.8403 317.993 76.9469 317.95 77.0696 317.95H81.4856C81.6136 317.95 81.7203 317.993 81.8056 318.078C81.8909 318.163 81.9336 318.27 81.9336 318.398C81.9336 318.521 81.8909 318.627 81.8056 318.718C81.7203 318.803 81.6136 318.846 81.4856 318.846H77.0696ZM86.7585 322.718C85.7398 322.718 84.9905 322.478 84.5105 321.998C84.0305 321.518 83.7905 320.769 83.7905 319.75V317.926C83.7905 316.902 84.0278 316.153 84.5025 315.678C84.9825 315.198 85.7345 314.963 86.7585 314.974H88.0705C88.8598 314.974 89.4678 315.107 89.8945 315.374C90.3211 315.635 90.5825 316.049 90.6785 316.614C90.7105 316.779 90.6785 316.91 90.5825 317.006C90.4918 317.097 90.3585 317.142 90.1825 317.142C90.0278 317.142 89.9131 317.102 89.8385 317.022C89.7638 316.937 89.7025 316.822 89.6545 316.678C89.5905 316.422 89.4358 316.243 89.1905 316.142C88.9505 316.035 88.5771 315.982 88.0705 315.982H86.7585C86.0225 315.971 85.5105 316.107 85.2225 316.39C84.9398 316.667 84.7985 317.179 84.7985 317.926V319.75C84.7985 320.486 84.9398 320.998 85.2225 321.286C85.5105 321.569 86.0225 321.71 86.7585 321.71H88.0705C88.5771 321.71 88.9505 321.659 89.1905 321.558C89.4358 321.451 89.5905 321.27 89.6545 321.014C89.7025 320.859 89.7638 320.745 89.8385 320.67C89.9185 320.59 90.0358 320.55 90.1905 320.55C90.3611 320.55 90.4918 320.595 90.5825 320.686C90.6785 320.777 90.7105 320.907 90.6785 321.078C90.5825 321.633 90.3211 322.046 89.8945 322.318C89.4678 322.585 88.8598 322.718 88.0705 322.718H86.7585ZM95.1988 322.718C94.3508 322.718 93.7242 322.515 93.3188 322.11C92.9135 321.705 92.7108 321.078 92.7108 320.23C92.7108 319.377 92.9135 318.747 93.3188 318.342C93.7242 317.937 94.3508 317.734 95.1988 317.734H98.7588C98.7375 317.078 98.5802 316.622 98.2868 316.366C97.9988 316.11 97.5028 315.982 96.7988 315.982H95.8708C95.2415 315.982 94.7775 316.043 94.4788 316.166C94.1855 316.283 93.9962 316.489 93.9108 316.782C93.8575 316.942 93.7908 317.059 93.7108 317.134C93.6362 317.203 93.5215 317.238 93.3668 317.238C93.2015 317.238 93.0708 317.193 92.9748 317.102C92.8842 317.006 92.8522 316.878 92.8788 316.718C92.9802 316.11 93.2762 315.667 93.7668 315.39C94.2575 315.113 94.9588 314.974 95.8708 314.974H96.7988C97.8228 314.974 98.5722 315.214 99.0468 315.694C99.5268 316.169 99.7668 316.918 99.7668 317.942V322.214C99.7668 322.55 99.5988 322.718 99.2628 322.718C98.9268 322.718 98.7588 322.55 98.7588 322.214V321.558C98.2308 322.331 97.3428 322.718 96.0948 322.718H95.1988ZM95.1988 321.71H96.0948C96.5748 321.71 97.0015 321.659 97.3748 321.558C97.7535 321.457 98.0628 321.289 98.3028 321.054C98.5482 320.819 98.7002 320.502 98.7588 320.102V318.742H95.1988C94.6282 318.742 94.2388 318.846 94.0308 319.054C93.8228 319.262 93.7188 319.654 93.7188 320.23C93.7188 320.801 93.8228 321.19 94.0308 321.398C94.2388 321.606 94.6282 321.71 95.1988 321.71ZM105.739 322.718C104.731 322.718 103.992 322.483 103.523 322.014C103.053 321.545 102.819 320.811 102.819 319.814V315.982H101.923C101.587 315.982 101.419 315.814 101.419 315.478C101.419 315.142 101.587 314.974 101.923 314.974H102.819V313.438C102.819 313.102 102.987 312.934 103.323 312.934C103.659 312.934 103.827 313.102 103.827 313.438V314.974H105.779C106.115 314.974 106.283 315.142 106.283 315.478C106.283 315.814 106.115 315.982 105.779 315.982H103.827V319.814C103.827 320.534 103.965 321.03 104.243 321.302C104.52 321.574 105.019 321.71 105.739 321.71C105.915 321.71 106.043 321.753 106.123 321.838C106.208 321.918 106.251 322.043 106.251 322.214C106.251 322.55 106.08 322.718 105.739 322.718ZM110.808 313.982C110.584 313.785 110.566 313.569 110.752 313.334L112.056 311.782C112.254 311.542 112.47 311.523 112.704 311.726C112.934 311.913 112.952 312.129 112.76 312.374L111.456 313.926C111.27 314.166 111.054 314.185 110.808 313.982ZM108.52 319.246V319.766C108.52 320.497 108.662 321.003 108.944 321.286C109.232 321.569 109.744 321.71 110.48 321.71H111.792C112.427 321.71 112.888 321.635 113.176 321.486C113.47 321.337 113.648 321.078 113.712 320.71C113.75 320.55 113.808 320.43 113.888 320.35C113.968 320.27 114.088 320.23 114.248 320.23C114.414 320.23 114.539 320.275 114.624 320.366C114.715 320.451 114.747 320.579 114.72 320.75C114.635 321.417 114.35 321.913 113.864 322.238C113.384 322.558 112.694 322.718 111.792 322.718H110.48C109.462 322.718 108.712 322.478 108.232 321.998C107.752 321.518 107.512 320.774 107.512 319.766V317.942C107.512 316.907 107.752 316.153 108.232 315.678C108.712 315.198 109.462 314.963 110.48 314.974H111.792C112.816 314.974 113.566 315.214 114.04 315.694C114.52 316.169 114.76 316.918 114.76 317.942V318.742C114.76 319.078 114.592 319.246 114.256 319.246H108.52ZM110.48 315.982C109.744 315.971 109.232 316.107 108.944 316.39C108.662 316.673 108.52 317.19 108.52 317.942V318.238H113.752V317.942C113.752 317.201 113.611 316.689 113.328 316.406C113.046 316.123 112.534 315.982 111.792 315.982H110.48ZM119.285 325.918C118.65 325.918 118.162 325.787 117.821 325.526C117.48 325.265 117.269 324.862 117.189 324.318C117.168 324.147 117.2 324.014 117.285 323.918C117.376 323.827 117.506 323.782 117.677 323.782C117.837 323.782 117.954 323.822 118.029 323.902C118.104 323.987 118.16 324.113 118.197 324.278C118.245 324.518 118.352 324.683 118.517 324.774C118.682 324.865 118.938 324.91 119.285 324.91H122.261C122.709 324.91 123.008 324.833 123.157 324.678C123.312 324.523 123.389 324.225 123.389 323.782V321.63C123.133 321.987 122.784 322.259 122.341 322.446C121.904 322.627 121.365 322.718 120.725 322.718H120.117C119.098 322.718 118.349 322.478 117.869 321.998C117.389 321.518 117.149 320.774 117.149 319.766V317.942C117.149 316.913 117.386 316.161 117.861 315.686C118.341 315.211 119.093 314.974 120.117 314.974H121.429C121.904 314.974 122.301 315.041 122.621 315.174C122.941 315.302 123.197 315.502 123.389 315.774V315.478C123.389 315.142 123.557 314.974 123.893 314.974C124.229 314.974 124.397 315.142 124.397 315.478V323.782C124.397 324.513 124.224 325.051 123.877 325.398C123.536 325.745 122.997 325.918 122.261 325.918H119.285ZM120.117 321.71H120.725C121.514 321.71 122.154 321.593 122.645 321.358C123.141 321.123 123.389 320.766 123.389 320.286V317.438C123.389 316.894 123.224 316.515 122.893 316.302C122.568 316.089 122.08 315.982 121.429 315.982H120.117C119.381 315.982 118.869 316.121 118.581 316.398C118.298 316.675 118.157 317.19 118.157 317.942V319.766C118.157 320.491 118.298 320.998 118.581 321.286C118.869 321.569 119.381 321.71 120.117 321.71ZM129.863 322.718C128.844 322.718 128.095 322.478 127.615 321.998C127.135 321.518 126.895 320.774 126.895 319.766V317.942C126.895 316.913 127.135 316.161 127.615 315.686C128.095 315.206 128.844 314.969 129.863 314.974H131.175C132.199 314.974 132.948 315.214 133.423 315.694C133.903 316.169 134.143 316.918 134.143 317.942V319.75C134.143 320.769 133.903 321.518 133.423 321.998C132.948 322.478 132.199 322.718 131.175 322.718H129.863ZM127.903 319.766C127.903 320.497 128.044 321.003 128.327 321.286C128.615 321.569 129.127 321.71 129.863 321.71H131.175C131.916 321.71 132.428 321.569 132.711 321.286C132.994 320.998 133.135 320.486 133.135 319.75V317.942C133.135 317.201 132.994 316.689 132.711 316.406C132.428 316.123 131.916 315.982 131.175 315.982H129.863C129.372 315.977 128.983 316.035 128.695 316.158C128.412 316.275 128.21 316.478 128.087 316.766C127.964 317.049 127.903 317.441 127.903 317.942V319.766ZM137.307 322.718C136.971 322.718 136.803 322.55 136.803 322.214V315.478C136.803 315.142 136.971 314.974 137.307 314.974C137.643 314.974 137.811 315.142 137.811 315.478V316.502C138.105 316.006 138.507 315.627 139.019 315.366C139.531 315.105 140.131 314.974 140.819 314.974C141.155 314.974 141.323 315.142 141.323 315.478C141.323 315.814 141.155 315.982 140.819 315.982C139.881 315.982 139.155 316.182 138.643 316.582C138.137 316.982 137.859 317.539 137.811 318.254V322.214C137.811 322.55 137.643 322.718 137.307 322.718ZM143.236 313.566C142.82 313.566 142.612 313.355 142.612 312.934V312.534C142.612 312.123 142.82 311.918 143.236 311.918H143.628C144.028 311.918 144.228 312.123 144.228 312.534V312.934C144.228 313.355 144.028 313.566 143.628 313.566H143.236ZM143.428 322.718C143.092 322.718 142.924 322.55 142.924 322.214V315.478C142.924 315.142 143.092 314.974 143.428 314.974C143.764 314.974 143.932 315.142 143.932 315.478V322.214C143.932 322.55 143.764 322.718 143.428 322.718ZM147.594 319.246V319.766C147.594 320.497 147.735 321.003 148.018 321.286C148.306 321.569 148.818 321.71 149.554 321.71H150.866C151.5 321.71 151.962 321.635 152.25 321.486C152.543 321.337 152.722 321.078 152.786 320.71C152.823 320.55 152.882 320.43 152.962 320.35C153.042 320.27 153.162 320.23 153.322 320.23C153.487 320.23 153.612 320.275 153.698 320.366C153.788 320.451 153.82 320.579 153.794 320.75C153.708 321.417 153.423 321.913 152.938 322.238C152.458 322.558 151.767 322.718 150.866 322.718H149.554C148.535 322.718 147.786 322.478 147.306 321.998C146.826 321.518 146.586 320.774 146.586 319.766V317.942C146.586 316.907 146.826 316.153 147.306 315.678C147.786 315.198 148.535 314.963 149.554 314.974H150.866C151.89 314.974 152.639 315.214 153.114 315.694C153.594 316.169 153.834 316.918 153.834 317.942V318.742C153.834 319.078 153.666 319.246 153.33 319.246H147.594ZM149.554 315.982C148.818 315.971 148.306 316.107 148.018 316.39C147.735 316.673 147.594 317.19 147.594 317.942V318.238H152.826V317.942C152.826 317.201 152.684 316.689 152.402 316.406C152.119 316.123 151.607 315.982 150.866 315.982H149.554ZM158.23 322.71C157.569 322.71 157.057 322.571 156.694 322.294C156.331 322.011 156.107 321.585 156.022 321.014C156.001 320.843 156.035 320.713 156.126 320.622C156.222 320.526 156.353 320.478 156.518 320.478C156.683 320.478 156.803 320.521 156.878 320.606C156.958 320.686 157.014 320.809 157.046 320.974C157.099 321.246 157.217 321.435 157.398 321.542C157.579 321.649 157.857 321.702 158.23 321.702H160.854C161.329 321.702 161.651 321.617 161.822 321.446C161.993 321.275 162.078 320.953 162.078 320.478C162.078 320.003 161.993 319.681 161.822 319.51C161.651 319.339 161.329 319.254 160.854 319.254H158.27C157.55 319.254 157.011 319.078 156.654 318.726C156.302 318.374 156.126 317.838 156.126 317.118C156.126 316.382 156.302 315.841 156.654 315.494C157.006 315.142 157.545 314.966 158.27 314.966H160.774C162.001 314.966 162.694 315.497 162.854 316.558C162.886 316.723 162.854 316.854 162.758 316.95C162.667 317.041 162.537 317.086 162.366 317.086C162.206 317.086 162.086 317.046 162.006 316.966C161.931 316.881 161.875 316.761 161.838 316.606C161.79 316.366 161.686 316.201 161.526 316.11C161.366 316.019 161.115 315.974 160.774 315.974H158.27C157.827 315.974 157.526 316.051 157.366 316.206C157.211 316.361 157.134 316.665 157.134 317.118C157.134 317.55 157.214 317.846 157.374 318.006C157.534 318.166 157.833 318.246 158.27 318.246H160.854C161.611 318.246 162.171 318.43 162.534 318.798C162.902 319.161 163.086 319.721 163.086 320.478C163.086 321.235 162.902 321.798 162.534 322.166C162.171 322.529 161.611 322.71 160.854 322.71H158.23Z" fill="#586E91"/>
<path d="M17.627 0.292893C17.2365 -0.0976311 16.6033 -0.0976311 16.2128 0.292893L9.84885 6.65685C9.45833 7.04738 9.45833 7.68054 9.84885 8.07107C10.2394 8.46159 10.8725 8.46159 11.2631 8.07107L16.9199 2.41421L22.5768 8.07107C22.9673 8.46159 23.6005 8.46159 23.991 8.07107C24.3815 7.68054 24.3815 7.04738 23.991 6.65685L17.627 0.292893ZM93.9199 262C93.9199 262.552 94.3676 263 94.9199 263C95.4722 263 95.9199 262.552 95.9199 262H93.9199ZM16.9199 1H15.9199V83.5H16.9199H17.9199V1H16.9199ZM40.9199 107.5V108.5H70.9199V107.5V106.5H40.9199V107.5ZM94.9199 131.5H93.9199V262H94.9199H95.9199V131.5H94.9199ZM70.9199 107.5V108.5C83.6225 108.5 93.9199 118.797 93.9199 131.5H94.9199H95.9199C95.9199 117.693 84.727 106.5 70.9199 106.5V107.5ZM16.9199 83.5H15.9199C15.9199 97.3071 27.1128 108.5 40.9199 108.5V107.5V106.5C28.2174 106.5 17.9199 96.2025 17.9199 83.5H16.9199Z" fill="#586E91"/>
<path d="M93.9199 262C93.9199 262.552 94.3676 263 94.9199 263C95.4722 263 95.9199 262.552 95.9199 262H93.9199ZM172.627 0.292893C172.237 -0.0976311 171.603 -0.0976311 171.213 0.292893L164.849 6.65685C164.458 7.04738 164.458 7.68054 164.849 8.07107C165.239 8.46159 165.873 8.46159 166.263 8.07107L171.92 2.41421L177.577 8.07107C177.967 8.46159 178.6 8.46159 178.991 8.07107C179.382 7.68054 179.382 7.04738 178.991 6.65685L172.627 0.292893ZM94.9199 262H95.9199V131.5H94.9199H93.9199V262H94.9199ZM118.92 107.5V108.5H147.92V107.5V106.5H118.92V107.5ZM171.92 83.5H172.92V1H171.92H170.92V83.5H171.92ZM147.92 107.5V108.5C161.727 108.5 172.92 97.3071 172.92 83.5H171.92H170.92C170.92 96.2025 160.622 106.5 147.92 106.5V107.5ZM94.9199 131.5H95.9199C95.9199 118.797 106.217 108.5 118.92 108.5V107.5V106.5C105.113 106.5 93.9199 117.693 93.9199 131.5H94.9199Z" fill="#586E91"/>
</svg>
