<svg width="55" height="17" viewBox="0 0 55 17" fill="none" xmlns="http://www.w3.org/2000/svg">
<path d="M3.34773 13.6547C3.18057 13.6547 3.05408 13.614 2.96824 13.5327C2.88693 13.4469 2.84627 13.3204 2.84627 13.1532V5.12312C2.84627 4.95145 2.88693 4.82495 2.96824 4.74363C3.05408 4.66232 3.18057 4.62166 3.34773 4.62166C3.51488 4.62166 3.63912 4.66232 3.72043 4.74363C3.80175 4.82495 3.84241 4.95145 3.84241 5.12312V13.1532C3.84241 13.3204 3.80175 13.4469 3.72043 13.5327C3.63912 13.614 3.51488 13.6547 3.34773 13.6547ZM10.2036 13.6547C10.041 13.6547 9.91673 13.614 9.83089 13.5327C9.74506 13.4469 9.70214 13.3226 9.70214 13.16V5.6178H6.99155C6.82892 5.6178 6.70468 5.57714 6.61884 5.49582C6.53301 5.40999 6.49009 5.28575 6.49009 5.12312C6.49009 4.96048 6.53301 4.83625 6.61884 4.75041C6.70468 4.66458 6.82892 4.62166 6.99155 4.62166H13.4156C13.5783 4.62166 13.7003 4.66458 13.7816 4.75041C13.8674 4.83625 13.9103 4.96048 13.9103 5.12312C13.9103 5.28575 13.8674 5.40999 13.7816 5.49582C13.7003 5.57714 13.5783 5.6178 13.4156 5.6178H10.6983V13.16C10.6983 13.3136 10.6554 13.4356 10.5695 13.5259C10.4837 13.6118 10.3617 13.6547 10.2036 13.6547ZM14.9607 13.6073C14.6444 13.4808 14.5496 13.2617 14.6761 12.9499L17.9491 5.00792C18.062 4.74589 18.2473 4.61488 18.5048 4.61488H18.5386C18.7962 4.62843 18.9723 4.75945 19.0672 5.00792L22.3741 12.9499C22.5006 13.2617 22.4103 13.4808 22.1031 13.6073C21.7914 13.7292 21.5745 13.6389 21.4525 13.3362L20.6597 11.4388H16.3702L15.6044 13.3362C15.4779 13.6434 15.2634 13.7338 14.9607 13.6073ZM16.7632 10.4426H20.2531L18.4844 6.1938L16.7632 10.4426ZM25.7198 13.6547C25.3855 13.6547 25.2183 13.4875 25.2183 13.1532V5.11634C25.2183 4.78203 25.3855 4.61488 25.7198 4.61488C25.9412 4.61488 26.1241 4.7233 26.2687 4.94015L29.5282 9.86665L29.3113 9.90053L32.5844 4.94015C32.7199 4.7233 32.9209 4.61488 33.1875 4.61488C33.463 4.61488 33.6008 4.78203 33.6008 5.11634V13.1532C33.6008 13.4875 33.4359 13.6547 33.1061 13.6547C32.7718 13.6547 32.6047 13.4875 32.6047 13.1532V6.11248L32.9096 6.21413L29.9686 10.5985C29.8241 10.8108 29.623 10.917 29.3655 10.917C29.1758 10.917 29.0086 10.8108 28.8641 10.5985L25.9231 6.21413L26.2145 6.30222V13.1532C26.2145 13.4875 26.0496 13.6547 25.7198 13.6547ZM36.7489 13.6073C36.4327 13.4808 36.3378 13.2617 36.4643 12.9499L39.7373 5.00792C39.8503 4.74589 40.0355 4.61488 40.293 4.61488H40.3269C40.5844 4.62843 40.7606 4.75945 40.8554 5.00792L44.1624 12.9499C44.2889 13.2617 44.1985 13.4808 43.8913 13.6073C43.5796 13.7292 43.3627 13.6389 43.2408 13.3362L42.4479 11.4388H38.1584L37.3927 13.3362C37.2662 13.6434 37.0516 13.7338 36.7489 13.6073ZM38.5514 10.4426H42.0413L40.2727 6.1938L38.5514 10.4426ZM46.6677 13.5463C46.4012 13.361 46.3605 13.1284 46.5458 12.8483L49.1073 9.08058L46.5051 5.42128C46.3244 5.16378 46.3673 4.93112 46.6339 4.7233C46.9049 4.53808 47.1353 4.581 47.3251 4.85206L49.7578 8.2674L52.2312 4.85206C52.4345 4.58552 52.6649 4.54938 52.9224 4.74363C53.189 4.94241 53.2274 5.17281 53.0376 5.43483L50.3677 9.12801L53.0105 12.8347C53.1957 13.1058 53.1528 13.343 52.8818 13.5463C52.6107 13.7315 52.3826 13.6886 52.1973 13.4175L49.7239 9.94796L47.3657 13.4243C47.1805 13.6863 46.9478 13.727 46.6677 13.5463Z" fill="#586E91"/>
</svg>
