<svg width="20" height="18" viewBox="0 0 20 18" fill="none" xmlns="http://www.w3.org/2000/svg">
<path d="M19.3671 8.2171C19.5132 8.2171 19.6533 8.27513 19.7566 8.37843C19.8599 8.48174 19.918 8.62185 19.918 8.76794C19.918 8.91403 19.8599 9.05414 19.7566 9.15744C19.6533 9.26074 19.5132 9.31878 19.3671 9.31878H1.96058L8.73591 16.0941C8.83625 16.198 8.89178 16.3371 8.89052 16.4816C8.88927 16.626 8.83133 16.7642 8.7292 16.8663C8.62707 16.9684 8.48892 17.0264 8.34449 17.0276C8.20006 17.0289 8.06091 16.9733 7.95703 16.873L0.245263 9.16124C0.141996 9.05794 0.0839844 8.91786 0.0839844 8.77179C0.0839844 8.62573 0.141996 8.48565 0.245263 8.38235L7.95703 0.670588C8.06091 0.570248 8.20006 0.514726 8.34449 0.515982C8.48892 0.517237 8.62707 0.575168 8.7292 0.677298C8.83133 0.779428 8.88927 0.917586 8.89052 1.06201C8.89178 1.20644 8.83625 1.34559 8.73591 1.44948L1.96058 8.22481H19.3671V8.2171Z" fill="white"/>
</svg>
