<svg width="20" height="18" viewBox="0 0 20 18" fill="none" xmlns="http://www.w3.org/2000/svg">
<path d="M19.3671 8.21713C19.5132 8.21713 19.6533 8.27516 19.7566 8.37847C19.8599 8.48177 19.918 8.62188 19.918 8.76797C19.918 8.91406 19.8599 9.05417 19.7566 9.15747C19.6533 9.26077 19.5132 9.31881 19.3671 9.31881H1.96058L8.73591 16.0941C8.83625 16.198 8.89178 16.3372 8.89052 16.4816C8.88927 16.626 8.83133 16.7642 8.7292 16.8663C8.62707 16.9685 8.48892 17.0264 8.34449 17.0276C8.20006 17.0289 8.06091 16.9734 7.95703 16.873L0.245263 9.16127C0.141996 9.05797 0.0839844 8.91789 0.0839844 8.77182C0.0839844 8.62576 0.141996 8.48568 0.245263 8.38238L7.95703 0.670619C8.06091 0.570279 8.20006 0.514757 8.34449 0.516012C8.48892 0.517267 8.62707 0.575198 8.7292 0.677328C8.83133 0.779459 8.88927 0.917616 8.89052 1.06204C8.89178 1.20647 8.83625 1.34562 8.73591 1.44951L1.96058 8.22484H19.3671V8.21713Z" fill="#586E91"/>
</svg>
