<svg width="20" height="18" viewBox="0 0 20 18" fill="none" xmlns="http://www.w3.org/2000/svg">
<path d="M0.634824 8.21713C0.488732 8.21713 0.348623 8.27516 0.24532 8.37847C0.142018 8.48177 0.0839834 8.62188 0.0839834 8.76797C0.0839834 8.91406 0.142018 9.05417 0.24532 9.15747C0.348623 9.26077 0.488732 9.31881 0.634824 9.31881H18.0414L11.266 16.0941C11.1657 16.198 11.1102 16.3372 11.1114 16.4816C11.1127 16.626 11.1706 16.7642 11.2727 16.8663C11.3749 16.9685 11.513 17.0264 11.6575 17.0276C11.8019 17.0289 11.941 16.9734 12.0449 16.873L19.7567 9.16127C19.86 9.05797 19.918 8.91789 19.918 8.77182C19.918 8.62576 19.86 8.48568 19.7567 8.38238L12.0449 0.670619C11.941 0.570279 11.8019 0.514757 11.6575 0.516012C11.513 0.517267 11.3749 0.575198 11.2727 0.677328C11.1706 0.779459 11.1127 0.917616 11.1114 1.06204C11.1102 1.20647 11.1657 1.34562 11.266 1.44951L18.0414 8.22484H0.634824V8.21713Z" fill="#586E91"/>
</svg>
