<svg width="20" height="18" viewBox="0 0 20 18" fill="none" xmlns="http://www.w3.org/2000/svg">
<path d="M0.634824 8.2171C0.488732 8.2171 0.348623 8.27513 0.24532 8.37843C0.142018 8.48174 0.0839834 8.62185 0.0839834 8.76794C0.0839834 8.91403 0.142018 9.05414 0.24532 9.15744C0.348623 9.26074 0.488732 9.31878 0.634824 9.31878H18.0414L11.266 16.0941C11.1657 16.198 11.1102 16.3371 11.1114 16.4816C11.1127 16.626 11.1706 16.7642 11.2727 16.8663C11.3749 16.9684 11.513 17.0264 11.6575 17.0276C11.8019 17.0289 11.941 16.9733 12.0449 16.873L19.7567 9.16124C19.86 9.05794 19.918 8.91786 19.918 8.77179C19.918 8.62573 19.86 8.48565 19.7567 8.38235L12.0449 0.670588C11.941 0.570248 11.8019 0.514726 11.6575 0.515982C11.513 0.517237 11.3749 0.575168 11.2727 0.677298C11.1706 0.779428 11.1127 0.917586 11.1114 1.06201C11.1102 1.20644 11.1657 1.34559 11.266 1.44948L18.0414 8.22481H0.634824V8.2171Z" fill="white"/>
</svg>
